<?xml version="1.0" encoding="utf-8" standalone="no"?>
<!DOCTYPE svg PUBLIC "-//W3C//DTD SVG 1.1//EN"
  "http://www.w3.org/Graphics/SVG/1.1/DTD/svg11.dtd">
<!-- Created with matplotlib (https://matplotlib.org/) -->
<svg height="288pt" version="1.1" viewBox="0 0 432 288" width="432pt" xmlns="http://www.w3.org/2000/svg" xmlns:xlink="http://www.w3.org/1999/xlink">
 <metadata>
  <rdf:RDF xmlns:cc="http://creativecommons.org/ns#" xmlns:dc="http://purl.org/dc/elements/1.1/" xmlns:rdf="http://www.w3.org/1999/02/22-rdf-syntax-ns#">
   <cc:Work>
    <dc:type rdf:resource="http://purl.org/dc/dcmitype/StillImage"/>
    <dc:date>2021-07-02T20:06:57.416841</dc:date>
    <dc:format>image/svg+xml</dc:format>
    <dc:creator>
     <cc:Agent>
      <dc:title>Matplotlib v3.3.4, https://matplotlib.org/</dc:title>
     </cc:Agent>
    </dc:creator>
   </cc:Work>
  </rdf:RDF>
 </metadata>
 <defs>
  <style type="text/css">*{stroke-linecap:butt;stroke-linejoin:round;}</style>
 </defs>
 <g id="figure_1">
  <g id="patch_1">
   <path d="M 0 288 
L 432 288 
L 432 0 
L 0 0 
z
" style="fill:none;"/>
  </g>
  <g id="axes_1">
   <g id="patch_2">
    <path d="M 54 252 
L 321.84 252 
L 321.84 34.56 
L 54 34.56 
z
" style="fill:#ffffff;"/>
   </g>
   <g id="PathCollection_1">
    <path clip-path="url(#pd6672b7cba)" d="M 102.2112 49.200224 
L 104.8896 49.52812 
L 107.568 49.816538 
L 110.2464 50.069104 
L 112.9248 50.289156 
L 115.6032 50.479759 
L 118.2816 50.643729 
L 120.96 50.783644 
L 123.6384 50.901854 
L 126.3168 51.000496 
L 128.9952 51.081501 
L 131.6736 51.146611 
L 134.352 51.197387 
L 137.0304 51.235227 
L 139.7088 51.26137 
L 142.3872 51.276916 
L 145.0656 51.282834 
L 147.744 51.279973 
L 150.4224 51.269073 
L 153.1008 51.250775 
L 155.7792 51.225629 
L 158.4576 51.194106 
L 161.136 51.156601 
L 163.8144 51.113442 
L 166.4928 51.064896 
L 169.1712 51.011175 
L 171.8496 50.952444 
L 174.528 50.888817 
L 177.2064 50.820373 
L 179.8848 50.747147 
L 182.5632 50.669144 
L 185.2416 50.586333 
L 187.92 50.498657 
L 190.5984 50.406029 
L 193.2768 50.308335 
L 195.9552 50.205439 
L 198.6336 50.097179 
L 201.312 49.983371 
L 203.9904 49.86381 
L 206.6688 49.738269 
L 209.3472 49.606499 
L 212.0256 49.468231 
L 214.704 49.323177 
L 217.3824 49.171027 
L 219.307413 49.056 
L 220.0608 49.011521 
L 222.7392 48.844493 
L 225.4176 48.669438 
L 228.096 48.485991 
L 230.7744 48.293768 
L 233.4528 48.092369 
L 236.1312 47.88138 
L 238.8096 47.660371 
L 241.488 47.428903 
L 244.1664 47.18652 
L 246.8448 46.93276 
L 249.5232 46.667146 
L 252.2016 46.389197 
L 254.88 46.098421 
L 257.5584 45.794315 
L 260.2368 45.47637 
L 260.585575 45.432 
L 262.9152 45.14673 
L 265.5936 44.803474 
L 268.272 44.445897 
L 270.9504 44.073679 
L 273.6288 43.686513 
L 276.3072 43.2841 
L 278.9856 42.866126 
L 281.664 42.432236 
L 284.3424 41.981977 
L 285.302804 41.808 
L 287.0208 41.520987 
L 289.6992 41.049184 
L 292.3776 40.56357 
L 295.056 40.064233 
L 297.7344 39.551016 
L 300.4128 39.023179 
L 303.0912 38.478666 
L 304.395969 38.184 
L 305.7696 37.927443 
L 308.448 37.381276 
L 311.1264 36.831271 
L 313.8048 36.284177 
L 316.4832 35.756514 
L 319.1616 35.284414 
L 321.84 34.9224 
L 321.84 34.56 
L 319.1616 34.56 
L 316.4832 34.56 
L 313.8048 34.56 
L 311.1264 34.56 
L 308.448 34.56 
L 305.7696 34.56 
L 303.0912 34.56 
L 300.4128 34.56 
L 297.7344 34.56 
L 295.056 34.56 
L 292.3776 34.56 
L 289.6992 34.56 
L 287.0208 34.56 
L 284.3424 34.56 
L 281.664 34.56 
L 278.9856 34.56 
L 276.3072 34.56 
L 273.6288 34.56 
L 270.9504 34.56 
L 268.272 34.56 
L 265.5936 34.56 
L 262.9152 34.56 
L 260.2368 34.56 
L 257.5584 34.56 
L 254.88 34.56 
L 252.2016 34.56 
L 249.5232 34.56 
L 246.8448 34.56 
L 244.1664 34.56 
L 241.488 34.56 
L 238.8096 34.56 
L 236.1312 34.56 
L 233.4528 34.56 
L 230.7744 34.56 
L 228.096 34.56 
L 225.4176 34.56 
L 222.7392 34.56 
L 220.0608 34.56 
L 217.3824 34.56 
L 214.704 34.56 
L 212.0256 34.56 
L 209.3472 34.56 
L 206.6688 34.56 
L 203.9904 34.56 
L 201.312 34.56 
L 198.6336 34.56 
L 195.9552 34.56 
L 193.2768 34.56 
L 190.5984 34.56 
L 187.92 34.56 
L 185.2416 34.56 
L 182.5632 34.56 
L 179.8848 34.56 
L 177.2064 34.56 
L 174.528 34.56 
L 171.8496 34.56 
L 169.1712 34.56 
L 166.4928 34.56 
L 163.8144 34.56 
L 161.136 34.56 
L 158.4576 34.56 
L 155.7792 34.56 
L 153.1008 34.56 
L 150.4224 34.56 
L 147.744 34.56 
L 145.0656 34.56 
L 142.3872 34.56 
L 139.7088 34.56 
L 137.0304 34.56 
L 134.352 34.56 
L 131.6736 34.56 
L 128.9952 34.56 
L 126.3168 34.56 
L 123.6384 34.56 
L 120.96 34.56 
L 118.2816 34.56 
L 115.6032 34.56 
L 112.9248 34.56 
L 110.2464 34.56 
L 107.568 34.56 
L 104.8896 34.56 
L 102.2112 34.56 
L 99.5328 34.56 
L 96.8544 34.56 
L 94.176 34.56 
L 91.4976 34.56 
L 88.8192 34.56 
L 86.1408 34.56 
L 83.4624 34.56 
L 80.784 34.56 
L 78.1056 34.56 
L 75.4272 34.56 
L 72.7488 34.56 
L 70.0704 34.56 
L 67.392 34.56 
L 64.7136 34.56 
L 62.0352 34.56 
L 59.3568 34.56 
L 56.6784 34.56 
L 56.14272 34.56 
L 56.6784 36.007106 
L 59.3568 36.943666 
L 62.0352 37.979353 
L 62.675915 38.184 
L 64.7136 39.152722 
L 67.392 40.235657 
L 70.0704 41.244423 
L 71.734276 41.808 
L 72.7488 42.225425 
L 75.4272 43.167209 
L 78.1056 44.031435 
L 80.784 44.827505 
L 83.016443 45.432 
L 83.4624 45.565517 
L 86.1408 46.259467 
L 88.8192 46.886993 
L 91.4976 47.453698 
L 94.176 47.964206 
L 96.8544 48.422615 
L 99.5328 48.832727 
L 101.183579 49.056 
z
" style="fill:#0000c8;"/>
   </g>
   <g id="PathCollection_2">
    <path clip-path="url(#pd6672b7cba)" d="M 102.2112 81.923233 
L 104.8896 82.520161 
L 107.568 83.023572 
L 110.2464 83.446098 
L 112.9248 83.798298 
L 115.6032 84.089094 
L 118.2816 84.326086 
L 120.96 84.515791 
L 123.6384 84.663821 
L 126.3168 84.775029 
L 128.9952 84.853611 
L 131.6736 84.903205 
L 134.352 84.926958 
L 137.0304 84.927594 
L 139.7088 84.907456 
L 142.3872 84.868564 
L 145.0656 84.81264 
L 147.744 84.741149 
L 150.4224 84.655326 
L 153.1008 84.556202 
L 155.7792 84.444624 
L 158.4576 84.321275 
L 161.136 84.186692 
L 163.8144 84.041281 
L 166.4928 83.885328 
L 169.1712 83.719012 
L 171.8496 83.542413 
L 174.528 83.355521 
L 177.2064 83.158245 
L 179.8848 82.950415 
L 182.5632 82.731787 
L 185.2416 82.502052 
L 187.92 82.26083 
L 190.5984 82.007679 
L 193.2768 81.742094 
L 193.948434 81.672 
L 195.9552 81.463318 
L 198.6336 81.170983 
L 201.312 80.864509 
L 203.9904 80.543174 
L 206.6688 80.206187 
L 209.3472 79.852687 
L 212.0256 79.48174 
L 214.704 79.092332 
L 217.3824 78.683361 
L 220.0608 78.253633 
L 221.275324 78.048 
L 222.7392 77.802807 
L 225.4176 77.329923 
L 228.096 76.832919 
L 230.7744 76.310281 
L 233.4528 75.760359 
L 236.1312 75.181355 
L 238.8096 74.571293 
L 239.418146 74.424 
L 241.488 73.933041 
L 244.1664 73.262496 
L 246.8448 72.556057 
L 249.5232 71.811197 
L 252.2016 71.025092 
L 252.920309 70.8 
L 254.88 70.204913 
L 257.5584 69.344224 
L 260.2368 68.436255 
L 262.9152 67.477164 
L 263.700161 67.176 
L 265.5936 66.480283 
L 268.272 65.436543 
L 270.9504 64.334376 
L 272.733268 63.552 
L 273.6288 63.18043 
L 276.3072 61.989037 
L 278.9856 60.730732 
L 280.578879 59.928 
L 281.664 59.419884 
L 284.3424 58.071509 
L 287.0208 56.64433 
L 287.60339 56.304 
L 289.6992 55.193343 
L 292.3776 53.678565 
L 294.003045 52.68 
L 295.056 52.107049 
L 297.7344 50.514258 
L 300.004002 49.056 
L 300.4128 48.831181 
L 303.0912 47.17477 
L 305.694721 45.432 
L 305.7696 45.391358 
L 308.448 43.692963 
L 311.1264 41.820862 
L 311.1402 41.808 
L 313.8048 40.119953 
L 316.399986 38.184 
L 316.4832 38.149542 
L 319.1616 36.733242 
L 321.84 35.6472 
L 321.84 34.9224 
L 319.1616 35.284414 
L 316.4832 35.756514 
L 313.8048 36.284177 
L 311.1264 36.831271 
L 308.448 37.381276 
L 305.7696 37.927443 
L 304.395969 38.184 
L 303.0912 38.478666 
L 300.4128 39.023179 
L 297.7344 39.551016 
L 295.056 40.064233 
L 292.3776 40.56357 
L 289.6992 41.049184 
L 287.0208 41.520987 
L 285.302804 41.808 
L 284.3424 41.981977 
L 281.664 42.432236 
L 278.9856 42.866126 
L 276.3072 43.2841 
L 273.6288 43.686513 
L 270.9504 44.073679 
L 268.272 44.445897 
L 265.5936 44.803474 
L 262.9152 45.14673 
L 260.585575 45.432 
L 260.2368 45.47637 
L 257.5584 45.794315 
L 254.88 46.098421 
L 252.2016 46.389197 
L 249.5232 46.667146 
L 246.8448 46.93276 
L 244.1664 47.18652 
L 241.488 47.428903 
L 238.8096 47.660371 
L 236.1312 47.88138 
L 233.4528 48.092369 
L 230.7744 48.293768 
L 228.096 48.485991 
L 225.4176 48.669438 
L 222.7392 48.844493 
L 220.0608 49.011521 
L 219.307413 49.056 
L 217.3824 49.171027 
L 214.704 49.323177 
L 212.0256 49.468231 
L 209.3472 49.606499 
L 206.6688 49.738269 
L 203.9904 49.86381 
L 201.312 49.983371 
L 198.6336 50.097179 
L 195.9552 50.205439 
L 193.2768 50.308335 
L 190.5984 50.406029 
L 187.92 50.498657 
L 185.2416 50.586333 
L 182.5632 50.669144 
L 179.8848 50.747147 
L 177.2064 50.820373 
L 174.528 50.888817 
L 171.8496 50.952444 
L 169.1712 51.011175 
L 166.4928 51.064896 
L 163.8144 51.113442 
L 161.136 51.156601 
L 158.4576 51.194106 
L 155.7792 51.225629 
L 153.1008 51.250775 
L 150.4224 51.269073 
L 147.744 51.279973 
L 145.0656 51.282834 
L 142.3872 51.276916 
L 139.7088 51.26137 
L 137.0304 51.235227 
L 134.352 51.197387 
L 131.6736 51.146611 
L 128.9952 51.081501 
L 126.3168 51.000496 
L 123.6384 50.901854 
L 120.96 50.783644 
L 118.2816 50.643729 
L 115.6032 50.479759 
L 112.9248 50.289156 
L 110.2464 50.069104 
L 107.568 49.816538 
L 104.8896 49.52812 
L 102.2112 49.200224 
L 101.183579 49.056 
L 99.5328 48.832727 
L 96.8544 48.422615 
L 94.176 47.964206 
L 91.4976 47.453698 
L 88.8192 46.886993 
L 86.1408 46.259467 
L 83.4624 45.565517 
L 83.016443 45.432 
L 80.784 44.827505 
L 78.1056 44.031435 
L 75.4272 43.167209 
L 72.7488 42.225425 
L 71.734276 41.808 
L 70.0704 41.244423 
L 67.392 40.235657 
L 64.7136 39.152722 
L 62.675915 38.184 
L 62.0352 37.979353 
L 59.3568 36.943666 
L 56.6784 36.007106 
L 56.14272 34.56 
L 55.07136 34.56 
L 56.146419 38.184 
L 56.6784 39.993816 
L 58.036912 41.808 
L 59.3568 44.606831 
L 59.988459 45.432 
L 62.027778 49.056 
L 62.0352 49.072194 
L 64.28941 52.68 
L 64.7136 53.468804 
L 66.681092 56.304 
L 67.392 57.463625 
L 69.27693 59.928 
L 70.0704 61.075761 
L 72.161203 63.552 
L 72.7488 64.307171 
L 75.4272 67.163461 
L 75.441111 67.176 
L 78.1056 69.744504 
L 79.406574 70.8 
L 80.784 71.977523 
L 83.4624 73.916938 
L 84.2794 74.424 
L 86.1408 75.625055 
L 88.8192 77.0962 
L 90.845395 78.048 
L 91.4976 78.362761 
L 94.176 79.47484 
L 96.8544 80.42161 
L 99.5328 81.229064 
L 101.250363 81.672 
z
" style="fill:#0040ff;"/>
   </g>
   <g id="PathCollection_3">
    <path clip-path="url(#pd6672b7cba)" d="M 54 248.376 
L 54 244.752 
L 54 241.128 
L 54 237.504 
L 54 233.88 
L 54 230.256 
L 54 226.632 
L 54 223.008 
L 54 219.384 
L 54 215.76 
L 54 212.136 
L 54 208.512 
L 54 204.888 
L 54 201.264 
L 54 197.64 
L 54 194.016 
L 54 190.392 
L 54 186.768 
L 54 183.144 
L 54 179.52 
L 54 175.896 
L 54 172.272 
L 54 168.648 
L 54 165.024 
L 54 161.4 
L 54 157.776 
L 54 154.152 
L 54 150.528 
L 54 146.904 
L 54 143.28 
L 54 139.656 
L 54 136.032 
L 54 132.408 
L 54 128.784 
L 54 125.16 
L 56.6784 123.791366 
L 59.3568 123.766404 
L 62.0352 123.725018 
L 64.7136 123.667531 
L 67.392 123.594382 
L 70.0704 123.506124 
L 72.7488 123.403407 
L 75.4272 123.286968 
L 78.1056 123.157618 
L 80.784 123.016221 
L 83.4624 122.863684 
L 86.1408 122.700937 
L 88.8192 122.528921 
L 91.4976 122.348567 
L 94.176 122.160789 
L 96.8544 121.966466 
L 99.5328 121.766434 
L 102.2112 121.561475 
L 102.528867 121.536 
L 104.8896 121.352 
L 107.568 121.138662 
L 110.2464 120.922104 
L 112.9248 120.702872 
L 115.6032 120.481434 
L 118.2816 120.258186 
L 120.96 120.033444 
L 123.6384 119.807451 
L 126.3168 119.580373 
L 128.9952 119.352307 
L 131.6736 119.12328 
L 134.352 118.893252 
L 137.0304 118.662122 
L 139.7088 118.429729 
L 142.3872 118.195855 
L 145.0656 117.960231 
L 145.606411 117.912 
L 147.744 117.721401 
L 150.4224 117.479813 
L 153.1008 117.23536 
L 155.7792 116.987605 
L 158.4576 116.736072 
L 161.136 116.480244 
L 163.8144 116.219568 
L 166.4928 115.953453 
L 169.1712 115.681274 
L 171.8496 115.40237 
L 174.528 115.116041 
L 177.2064 114.821555 
L 179.8848 114.518136 
L 181.851857 114.288 
L 182.5632 114.204601 
L 185.2416 113.879484 
L 187.92 113.542978 
L 190.5984 113.194156 
L 193.2768 112.832036 
L 195.9552 112.455575 
L 198.6336 112.063666 
L 201.312 111.655128 
L 203.9904 111.228697 
L 206.6688 110.783012 
L 207.351517 110.664 
L 209.3472 110.316348 
L 212.0256 109.827694 
L 214.704 109.315554 
L 217.3824 108.778143 
L 220.0608 108.21351 
L 222.7392 107.61951 
L 225.219557 107.04 
L 225.4176 106.993929 
L 228.096 106.336555 
L 230.7744 105.643207 
L 233.4528 104.91086 
L 236.1312 104.136126 
L 238.480519 103.416 
L 238.8096 103.316025 
L 241.488 102.452926 
L 244.1664 101.537146 
L 246.8448 100.563576 
L 248.83719 99.792 
L 249.5232 99.530087 
L 252.2016 98.440192 
L 254.88 97.277132 
L 257.267171 96.168 
L 257.5584 96.035342 
L 260.2368 94.729295 
L 262.9152 93.328867 
L 264.310839 92.544 
L 265.5936 91.841554 
L 268.272 90.263805 
L 270.385445 88.92 
L 270.9504 88.572477 
L 273.6288 86.793158 
L 275.707751 85.296 
L 276.3072 84.881489 
L 278.9856 82.871827 
L 280.452477 81.672 
L 281.664 80.728678 
L 284.3424 78.451395 
L 284.774513 78.048 
L 287.0208 76.071412 
L 288.719781 74.424 
L 289.6992 73.537029 
L 292.3776 70.853027 
L 292.425048 70.8 
L 295.056 68.088871 
L 295.844384 67.176 
L 297.7344 65.18405 
L 299.100017 63.552 
L 300.4128 62.146069 
L 302.217763 59.928 
L 303.0912 58.98463 
L 305.22046 56.304 
L 305.7696 55.711404 
L 308.12847 52.68 
L 308.448 52.339781 
L 310.960127 49.056 
L 311.1264 48.884595 
L 313.732137 45.432 
L 313.8048 45.36186 
L 316.459934 41.808 
L 316.4832 41.788502 
L 319.157985 38.184 
L 319.1616 38.18207 
L 321.84 36.372 
L 321.84 35.6472 
L 319.1616 36.733242 
L 316.4832 38.149542 
L 316.399986 38.184 
L 313.8048 40.119953 
L 311.1402 41.808 
L 311.1264 41.820862 
L 308.448 43.692963 
L 305.7696 45.391358 
L 305.694721 45.432 
L 303.0912 47.17477 
L 300.4128 48.831181 
L 300.004002 49.056 
L 297.7344 50.514258 
L 295.056 52.107049 
L 294.003045 52.68 
L 292.3776 53.678565 
L 289.6992 55.193343 
L 287.60339 56.304 
L 287.0208 56.64433 
L 284.3424 58.071509 
L 281.664 59.419884 
L 280.578879 59.928 
L 278.9856 60.730732 
L 276.3072 61.989037 
L 273.6288 63.18043 
L 272.733268 63.552 
L 270.9504 64.334376 
L 268.272 65.436543 
L 265.5936 66.480283 
L 263.700161 67.176 
L 262.9152 67.477164 
L 260.2368 68.436255 
L 257.5584 69.344224 
L 254.88 70.204913 
L 252.920309 70.8 
L 252.2016 71.025092 
L 249.5232 71.811197 
L 246.8448 72.556057 
L 244.1664 73.262496 
L 241.488 73.933041 
L 239.418146 74.424 
L 238.8096 74.571293 
L 236.1312 75.181355 
L 233.4528 75.760359 
L 230.7744 76.310281 
L 228.096 76.832919 
L 225.4176 77.329923 
L 222.7392 77.802807 
L 221.275324 78.048 
L 220.0608 78.253633 
L 217.3824 78.683361 
L 214.704 79.092332 
L 212.0256 79.48174 
L 209.3472 79.852687 
L 206.6688 80.206187 
L 203.9904 80.543174 
L 201.312 80.864509 
L 198.6336 81.170983 
L 195.9552 81.463318 
L 193.948434 81.672 
L 193.2768 81.742094 
L 190.5984 82.007679 
L 187.92 82.26083 
L 185.2416 82.502052 
L 182.5632 82.731787 
L 179.8848 82.950415 
L 177.2064 83.158245 
L 174.528 83.355521 
L 171.8496 83.542413 
L 169.1712 83.719012 
L 166.4928 83.885328 
L 163.8144 84.041281 
L 161.136 84.186692 
L 158.4576 84.321275 
L 155.7792 84.444624 
L 153.1008 84.556202 
L 150.4224 84.655326 
L 147.744 84.741149 
L 145.0656 84.81264 
L 142.3872 84.868564 
L 139.7088 84.907456 
L 137.0304 84.927594 
L 134.352 84.926958 
L 131.6736 84.903205 
L 128.9952 84.853611 
L 126.3168 84.775029 
L 123.6384 84.663821 
L 120.96 84.515791 
L 118.2816 84.326086 
L 115.6032 84.089094 
L 112.9248 83.798298 
L 110.2464 83.446098 
L 107.568 83.023572 
L 104.8896 82.520161 
L 102.2112 81.923233 
L 101.250363 81.672 
L 99.5328 81.229064 
L 96.8544 80.42161 
L 94.176 79.47484 
L 91.4976 78.362761 
L 90.845395 78.048 
L 88.8192 77.0962 
L 86.1408 75.625055 
L 84.2794 74.424 
L 83.4624 73.916938 
L 80.784 71.977523 
L 79.406574 70.8 
L 78.1056 69.744504 
L 75.441111 67.176 
L 75.4272 67.163461 
L 72.7488 64.307171 
L 72.161203 63.552 
L 70.0704 61.075761 
L 69.27693 59.928 
L 67.392 57.463625 
L 66.681092 56.304 
L 64.7136 53.468804 
L 64.28941 52.68 
L 62.0352 49.072194 
L 62.027778 49.056 
L 59.988459 45.432 
L 59.3568 44.606831 
L 58.036912 41.808 
L 56.6784 39.993816 
L 56.146419 38.184 
L 55.07136 34.56 
L 54 34.56 
L 54 38.184 
L 54 41.808 
L 54 45.432 
L 54 49.056 
L 54 52.68 
L 54 56.304 
L 54 59.928 
L 54 63.552 
L 54 67.176 
L 54 70.8 
L 54 74.424 
L 54 78.048 
L 54 81.672 
L 54 85.296 
L 54 88.92 
L 54 92.544 
L 54 96.168 
L 54 99.792 
L 54 103.416 
L 54 107.04 
L 54 110.664 
L 54 114.288 
L 54 117.912 
L 54 121.536 
L 54 125.16 
L 54 128.784 
L 54 132.408 
L 54 136.032 
L 54 139.656 
L 54 143.28 
L 54 146.904 
L 54 150.528 
L 54 154.152 
L 54 157.776 
L 54 161.4 
L 54 165.024 
L 54 168.648 
L 54 172.272 
L 54 175.896 
L 54 179.52 
L 54 183.144 
L 54 186.768 
L 54 190.392 
L 54 194.016 
L 54 197.64 
L 54 201.264 
L 54 204.888 
L 54 208.512 
L 54 212.136 
L 54 215.76 
L 54 219.384 
L 54 223.008 
L 54 226.632 
L 54 230.256 
L 54 233.88 
L 54 237.504 
L 54 241.128 
L 54 244.752 
L 54 248.376 
z
" style="fill:#00c0ff;"/>
   </g>
   <g id="PathCollection_4">
    <path clip-path="url(#pd6672b7cba)" d="M 55.072309 248.376 
L 55.776941 244.752 
L 56.574633 241.128 
L 56.6784 240.558974 
L 57.52323 237.504 
L 58.432773 233.88 
L 59.335835 230.256 
L 59.3568 230.160427 
L 60.329574 226.632 
L 61.317879 223.008 
L 62.0352 220.336633 
L 62.342445 219.384 
L 63.435547 215.76 
L 64.55228 212.136 
L 64.7136 211.590076 
L 65.766397 208.512 
L 67.030762 204.888 
L 67.392 203.838114 
L 68.404639 201.264 
L 69.863795 197.64 
L 70.0704 197.121849 
L 71.476218 194.016 
L 72.7488 191.288134 
L 73.222722 190.392 
L 75.160478 186.768 
L 75.4272 186.274624 
L 77.342486 183.144 
L 78.1056 181.924415 
L 79.809494 179.52 
L 80.784 178.169697 
L 82.644935 175.896 
L 83.4624 174.912704 
L 85.957012 172.272 
L 86.1408 172.080172 
L 88.8192 169.576704 
L 89.946599 168.648 
L 91.4976 167.380944 
L 94.176 165.447824 
L 94.829101 165.024 
L 96.8544 163.716444 
L 99.5328 162.180138 
L 101.046282 161.4 
L 102.2112 160.801528 
L 104.8896 159.553295 
L 107.568 158.433226 
L 109.295885 157.776 
L 110.2464 157.414646 
L 112.9248 156.478707 
L 115.6032 155.626403 
L 118.2816 154.846447 
L 120.874273 154.152 
L 120.96 154.128988 
L 123.6384 153.456322 
L 126.3168 152.833216 
L 128.9952 152.25352 
L 131.6736 151.711903 
L 134.352 151.203708 
L 137.0304 150.724841 
L 138.189427 150.528 
L 139.7088 150.268633 
L 142.3872 149.833101 
L 145.0656 149.41767 
L 147.744 149.019646 
L 150.4224 148.636577 
L 153.1008 148.266226 
L 155.7792 147.906534 
L 158.4576 147.555598 
L 161.136 147.211645 
L 163.568839 146.904 
L 163.8144 146.872752 
L 166.4928 146.535124 
L 169.1712 146.199973 
L 171.8496 145.865871 
L 174.528 145.531454 
L 177.2064 145.195406 
L 179.8848 144.856452 
L 182.5632 144.51335 
L 185.2416 144.164877 
L 187.92 143.809829 
L 190.5984 143.447004 
L 191.801776 143.28 
L 193.2768 143.074074 
L 195.9552 142.690137 
L 198.6336 142.294926 
L 201.312 141.887184 
L 203.9904 141.465616 
L 206.6688 141.028873 
L 209.3472 140.575543 
L 212.0256 140.104134 
L 214.470301 139.656 
L 214.704 139.61294 
L 217.3824 139.099307 
L 220.0608 138.562811 
L 222.7392 138.00149 
L 225.4176 137.4132 
L 228.096 136.795569 
L 230.7744 136.145967 
L 231.222347 136.032 
L 233.4528 135.461964 
L 236.1312 134.74058 
L 238.8096 133.978147 
L 241.488 133.170539 
L 243.871875 132.408 
L 244.1664 132.31343 
L 246.8448 131.405171 
L 249.5232 130.437035 
L 252.2016 129.401973 
L 253.700349 128.784 
L 254.88 128.296032 
L 257.5584 127.113007 
L 260.2368 125.837072 
L 261.559776 125.16 
L 262.9152 124.464663 
L 265.5936 122.984064 
L 267.999341 121.536 
L 268.272 121.37174 
L 270.9504 119.634676 
L 273.369183 117.912 
L 273.6288 117.727231 
L 276.3072 115.662659 
L 277.927963 114.288 
L 278.9856 113.392822 
L 281.664 110.898587 
L 281.894493 110.664 
L 284.3424 108.179428 
L 285.357307 107.04 
L 287.0208 105.182828 
L 288.449832 103.416 
L 289.6992 101.884317 
L 291.237708 99.792 
L 292.3776 98.259062 
L 293.776141 96.168 
L 295.056 94.280343 
L 296.111751 92.544 
L 297.7344 89.916425 
L 298.284152 88.92 
L 300.32124 85.296 
L 300.4128 85.139575 
L 302.210722 81.672 
L 303.0912 80.021759 
L 304.017291 78.048 
L 305.764814 74.424 
L 305.7696 74.41477 
L 307.390313 70.8 
L 308.448 68.539051 
L 308.991637 67.176 
L 310.531128 63.552 
L 311.1264 62.270403 
L 312.021526 59.928 
L 313.506135 56.304 
L 313.8048 55.678112 
L 314.909554 52.68 
L 316.371516 49.056 
L 316.4832 48.843608 
L 317.691304 45.432 
L 319.1616 41.87851 
L 319.177697 41.808 
L 320.232103 38.184 
L 321.84 37.0968 
L 321.84 36.372 
L 319.1616 38.18207 
L 319.157985 38.184 
L 316.4832 41.788502 
L 316.459934 41.808 
L 313.8048 45.36186 
L 313.732137 45.432 
L 311.1264 48.884595 
L 310.960127 49.056 
L 308.448 52.339781 
L 308.12847 52.68 
L 305.7696 55.711404 
L 305.22046 56.304 
L 303.0912 58.98463 
L 302.217763 59.928 
L 300.4128 62.146069 
L 299.100017 63.552 
L 297.7344 65.18405 
L 295.844384 67.176 
L 295.056 68.088871 
L 292.425048 70.8 
L 292.3776 70.853027 
L 289.6992 73.537029 
L 288.719781 74.424 
L 287.0208 76.071412 
L 284.774513 78.048 
L 284.3424 78.451395 
L 281.664 80.728678 
L 280.452477 81.672 
L 278.9856 82.871827 
L 276.3072 84.881489 
L 275.707751 85.296 
L 273.6288 86.793158 
L 270.9504 88.572477 
L 270.385445 88.92 
L 268.272 90.263805 
L 265.5936 91.841554 
L 264.310839 92.544 
L 262.9152 93.328867 
L 260.2368 94.729295 
L 257.5584 96.035342 
L 257.267171 96.168 
L 254.88 97.277132 
L 252.2016 98.440192 
L 249.5232 99.530087 
L 248.83719 99.792 
L 246.8448 100.563576 
L 244.1664 101.537146 
L 241.488 102.452926 
L 238.8096 103.316025 
L 238.480519 103.416 
L 236.1312 104.136126 
L 233.4528 104.91086 
L 230.7744 105.643207 
L 228.096 106.336555 
L 225.4176 106.993929 
L 225.219557 107.04 
L 222.7392 107.61951 
L 220.0608 108.21351 
L 217.3824 108.778143 
L 214.704 109.315554 
L 212.0256 109.827694 
L 209.3472 110.316348 
L 207.351517 110.664 
L 206.6688 110.783012 
L 203.9904 111.228697 
L 201.312 111.655128 
L 198.6336 112.063666 
L 195.9552 112.455575 
L 193.2768 112.832036 
L 190.5984 113.194156 
L 187.92 113.542978 
L 185.2416 113.879484 
L 182.5632 114.204601 
L 181.851857 114.288 
L 179.8848 114.518136 
L 177.2064 114.821555 
L 174.528 115.116041 
L 171.8496 115.40237 
L 169.1712 115.681274 
L 166.4928 115.953453 
L 163.8144 116.219568 
L 161.136 116.480244 
L 158.4576 116.736072 
L 155.7792 116.987605 
L 153.1008 117.23536 
L 150.4224 117.479813 
L 147.744 117.721401 
L 145.606411 117.912 
L 145.0656 117.960231 
L 142.3872 118.195855 
L 139.7088 118.429729 
L 137.0304 118.662122 
L 134.352 118.893252 
L 131.6736 119.12328 
L 128.9952 119.352307 
L 126.3168 119.580373 
L 123.6384 119.807451 
L 120.96 120.033444 
L 118.2816 120.258186 
L 115.6032 120.481434 
L 112.9248 120.702872 
L 110.2464 120.922104 
L 107.568 121.138662 
L 104.8896 121.352 
L 102.528867 121.536 
L 102.2112 121.561475 
L 99.5328 121.766434 
L 96.8544 121.966466 
L 94.176 122.160789 
L 91.4976 122.348567 
L 88.8192 122.528921 
L 86.1408 122.700937 
L 83.4624 122.863684 
L 80.784 123.016221 
L 78.1056 123.157618 
L 75.4272 123.286968 
L 72.7488 123.403407 
L 70.0704 123.506124 
L 67.392 123.594382 
L 64.7136 123.667531 
L 62.0352 123.725018 
L 59.3568 123.766404 
L 56.6784 123.791366 
L 54 125.16 
L 54 128.784 
L 54 132.408 
L 54 136.032 
L 54 139.656 
L 54 143.28 
L 54 146.904 
L 54 150.528 
L 54 154.152 
L 54 157.776 
L 54 161.4 
L 54 165.024 
L 54 168.648 
L 54 172.272 
L 54 175.896 
L 54 179.52 
L 54 183.144 
L 54 186.768 
L 54 190.392 
L 54 194.016 
L 54 197.64 
L 54 201.264 
L 54 204.888 
L 54 208.512 
L 54 212.136 
L 54 215.76 
L 54 219.384 
L 54 223.008 
L 54 226.632 
L 54 230.256 
L 54 233.88 
L 54 237.504 
L 54 241.128 
L 54 244.752 
L 54 248.376 
L 54 249.1008 
z
" style="fill:#49ffad;"/>
   </g>
   <g id="PathCollection_5">
    <path clip-path="url(#pd6672b7cba)" d="M 56.144618 248.376 
L 56.6784 246.554676 
L 58.019695 244.752 
L 59.3568 241.885113 
L 59.9265 241.128 
L 61.906158 237.504 
L 62.0352 237.212555 
L 64.025508 233.88 
L 64.7136 232.526216 
L 66.18201 230.256 
L 67.392 228.109038 
L 68.412404 226.632 
L 70.0704 223.933181 
L 70.749562 223.008 
L 72.7488 219.997104 
L 73.226529 219.384 
L 75.4272 216.305718 
L 75.879038 215.76 
L 78.1056 212.863898 
L 78.747471 212.136 
L 80.784 209.674091 
L 81.8787 208.512 
L 83.4624 206.735501 
L 85.328051 204.888 
L 86.1408 204.043972 
L 88.8192 201.573077 
L 89.193243 201.264 
L 91.4976 199.279491 
L 93.63246 197.64 
L 94.176 197.207497 
L 96.8544 195.286225 
L 98.825064 194.016 
L 99.5328 193.5458 
L 102.2112 191.933549 
L 104.8896 190.479216 
L 105.065521 190.392 
L 107.568 189.119908 
L 110.2464 187.884768 
L 112.905994 186.768 
L 112.9248 186.759935 
L 115.6032 185.705416 
L 118.2816 184.741745 
L 120.96 183.858061 
L 123.311503 183.144 
L 123.6384 183.043048 
L 126.3168 182.278345 
L 128.9952 181.572323 
L 131.6736 180.918423 
L 134.352 180.31089 
L 137.0304 179.744636 
L 138.1658 179.52 
L 139.7088 179.210749 
L 142.3872 178.707424 
L 145.0656 178.234233 
L 147.744 177.787714 
L 150.4224 177.364741 
L 153.1008 176.962473 
L 155.7792 176.578324 
L 158.4576 176.209927 
L 160.827419 175.896 
L 161.136 175.854707 
L 163.8144 175.508257 
L 166.4928 175.171874 
L 169.1712 174.843792 
L 171.8496 174.52237 
L 174.528 174.206084 
L 177.2064 173.893508 
L 179.8848 173.583307 
L 182.5632 173.274227 
L 185.2416 172.965086 
L 187.92 172.654765 
L 190.5984 172.342206 
L 191.194915 172.272 
L 193.2768 172.024828 
L 195.9552 171.702871 
L 198.6336 171.375863 
L 201.312 171.042902 
L 203.9904 170.703119 
L 206.6688 170.35567 
L 209.3472 169.999732 
L 212.0256 169.634499 
L 214.704 169.259175 
L 217.3824 168.872968 
L 218.900113 168.648 
L 220.0608 168.47426 
L 222.7392 168.061994 
L 225.4176 167.63644 
L 228.096 167.196732 
L 230.7744 166.741969 
L 233.4528 166.271192 
L 236.1312 165.783376 
L 238.8096 165.277403 
L 240.108014 165.024 
L 241.488 164.750954 
L 244.1664 164.202616 
L 246.8448 163.631784 
L 249.5232 163.036602 
L 252.2016 162.414913 
L 254.88 161.764188 
L 256.32003 161.4 
L 257.5584 161.080326 
L 260.2368 160.359309 
L 262.9152 159.597906 
L 265.5936 158.790701 
L 268.272 157.931047 
L 268.733945 157.776 
L 270.9504 157.008827 
L 273.6288 156.014795 
L 276.3072 154.936193 
L 278.110558 154.152 
L 278.9856 153.756184 
L 281.664 152.452981 
L 284.3424 150.998685 
L 285.140198 150.528 
L 287.0208 149.359299 
L 289.6992 147.483656 
L 290.447652 146.904 
L 292.3776 145.312573 
L 294.53273 143.28 
L 295.056 142.752011 
L 297.7344 139.682965 
L 297.755425 139.656 
L 300.352471 136.032 
L 300.4128 135.940721 
L 302.491298 132.408 
L 303.0912 131.289357 
L 304.293485 128.784 
L 305.7696 125.356282 
L 305.845608 125.16 
L 307.183207 121.536 
L 308.375088 117.912 
L 308.448 117.682873 
L 309.426759 114.288 
L 310.381356 110.664 
L 311.1264 107.618699 
L 311.255038 107.04 
L 312.047702 103.416 
L 312.78594 99.792 
L 313.478988 96.168 
L 313.8048 94.434882 
L 314.12642 92.544 
L 314.733218 88.92 
L 315.31214 85.296 
L 315.868001 81.672 
L 316.405333 78.048 
L 316.4832 77.548995 
L 316.913623 74.424 
L 317.404445 70.8 
L 317.882956 67.176 
L 318.352303 63.552 
L 318.816469 59.928 
L 319.1616 57.342112 
L 319.274731 56.304 
L 319.710597 52.68 
L 320.138603 49.056 
L 320.555934 45.432 
L 320.952566 41.808 
L 321.304034 38.184 
L 321.84 37.8216 
L 321.84 37.0968 
L 320.232103 38.184 
L 319.177697 41.808 
L 319.1616 41.87851 
L 317.691304 45.432 
L 316.4832 48.843608 
L 316.371516 49.056 
L 314.909554 52.68 
L 313.8048 55.678112 
L 313.506135 56.304 
L 312.021526 59.928 
L 311.1264 62.270403 
L 310.531128 63.552 
L 308.991637 67.176 
L 308.448 68.539051 
L 307.390313 70.8 
L 305.7696 74.41477 
L 305.764814 74.424 
L 304.017291 78.048 
L 303.0912 80.021759 
L 302.210722 81.672 
L 300.4128 85.139575 
L 300.32124 85.296 
L 298.284152 88.92 
L 297.7344 89.916425 
L 296.111751 92.544 
L 295.056 94.280343 
L 293.776141 96.168 
L 292.3776 98.259062 
L 291.237708 99.792 
L 289.6992 101.884317 
L 288.449832 103.416 
L 287.0208 105.182828 
L 285.357307 107.04 
L 284.3424 108.179428 
L 281.894493 110.664 
L 281.664 110.898587 
L 278.9856 113.392822 
L 277.927963 114.288 
L 276.3072 115.662659 
L 273.6288 117.727231 
L 273.369183 117.912 
L 270.9504 119.634676 
L 268.272 121.37174 
L 267.999341 121.536 
L 265.5936 122.984064 
L 262.9152 124.464663 
L 261.559776 125.16 
L 260.2368 125.837072 
L 257.5584 127.113007 
L 254.88 128.296032 
L 253.700349 128.784 
L 252.2016 129.401973 
L 249.5232 130.437035 
L 246.8448 131.405171 
L 244.1664 132.31343 
L 243.871875 132.408 
L 241.488 133.170539 
L 238.8096 133.978147 
L 236.1312 134.74058 
L 233.4528 135.461964 
L 231.222347 136.032 
L 230.7744 136.145967 
L 228.096 136.795569 
L 225.4176 137.4132 
L 222.7392 138.00149 
L 220.0608 138.562811 
L 217.3824 139.099307 
L 214.704 139.61294 
L 214.470301 139.656 
L 212.0256 140.104134 
L 209.3472 140.575543 
L 206.6688 141.028873 
L 203.9904 141.465616 
L 201.312 141.887184 
L 198.6336 142.294926 
L 195.9552 142.690137 
L 193.2768 143.074074 
L 191.801776 143.28 
L 190.5984 143.447004 
L 187.92 143.809829 
L 185.2416 144.164877 
L 182.5632 144.51335 
L 179.8848 144.856452 
L 177.2064 145.195406 
L 174.528 145.531454 
L 171.8496 145.865871 
L 169.1712 146.199973 
L 166.4928 146.535124 
L 163.8144 146.872752 
L 163.568839 146.904 
L 161.136 147.211645 
L 158.4576 147.555598 
L 155.7792 147.906534 
L 153.1008 148.266226 
L 150.4224 148.636577 
L 147.744 149.019646 
L 145.0656 149.41767 
L 142.3872 149.833101 
L 139.7088 150.268633 
L 138.189427 150.528 
L 137.0304 150.724841 
L 134.352 151.203708 
L 131.6736 151.711903 
L 128.9952 152.25352 
L 126.3168 152.833216 
L 123.6384 153.456322 
L 120.96 154.128988 
L 120.874273 154.152 
L 118.2816 154.846447 
L 115.6032 155.626403 
L 112.9248 156.478707 
L 110.2464 157.414646 
L 109.295885 157.776 
L 107.568 158.433226 
L 104.8896 159.553295 
L 102.2112 160.801528 
L 101.046282 161.4 
L 99.5328 162.180138 
L 96.8544 163.716444 
L 94.829101 165.024 
L 94.176 165.447824 
L 91.4976 167.380944 
L 89.946599 168.648 
L 88.8192 169.576704 
L 86.1408 172.080172 
L 85.957012 172.272 
L 83.4624 174.912704 
L 82.644935 175.896 
L 80.784 178.169697 
L 79.809494 179.52 
L 78.1056 181.924415 
L 77.342486 183.144 
L 75.4272 186.274624 
L 75.160478 186.768 
L 73.222722 190.392 
L 72.7488 191.288134 
L 71.476218 194.016 
L 70.0704 197.121849 
L 69.863795 197.64 
L 68.404639 201.264 
L 67.392 203.838114 
L 67.030762 204.888 
L 65.766397 208.512 
L 64.7136 211.590076 
L 64.55228 212.136 
L 63.435547 215.76 
L 62.342445 219.384 
L 62.0352 220.336633 
L 61.317879 223.008 
L 60.329574 226.632 
L 59.3568 230.160427 
L 59.335835 230.256 
L 58.432773 233.88 
L 57.52323 237.504 
L 56.6784 240.558974 
L 56.574633 241.128 
L 55.776941 244.752 
L 55.072309 248.376 
L 54 249.1008 
L 54 249.8256 
z
" style="fill:#b1ff46;"/>
   </g>
   <g id="PathCollection_6">
    <path clip-path="url(#pd6672b7cba)" d="M 56.6784 249.103364 
L 58.042554 248.376 
L 59.3568 246.609651 
L 61.583699 244.752 
L 62.0352 244.151931 
L 64.7136 241.631577 
L 65.380985 241.128 
L 67.392 239.123301 
L 69.346095 237.504 
L 70.0704 236.759932 
L 72.7488 234.455443 
L 73.519726 233.88 
L 75.4272 232.213261 
L 77.963572 230.256 
L 78.1056 230.131021 
L 80.784 228.077214 
L 82.873954 226.632 
L 83.4624 226.181001 
L 86.1408 224.355056 
L 88.312254 223.008 
L 88.8192 222.666627 
L 91.4976 221.047653 
L 94.176 219.56418 
L 94.534534 219.384 
L 96.8544 218.144246 
L 99.5328 216.834091 
L 101.920898 215.76 
L 102.2112 215.622702 
L 104.8896 214.471411 
L 107.568 213.41227 
L 110.2464 212.435354 
L 111.140428 212.136 
L 112.9248 211.516698 
L 115.6032 210.662231 
L 118.2816 209.873222 
L 120.96 209.143365 
L 123.461858 208.512 
L 123.6384 208.466267 
L 126.3168 207.82773 
L 128.9952 207.235888 
L 131.6736 206.686291 
L 134.352 206.174938 
L 137.0304 205.698211 
L 139.7088 205.25282 
L 142.053091 204.888 
L 142.3872 204.835139 
L 145.0656 204.439323 
L 147.744 204.067325 
L 150.4224 203.716683 
L 153.1008 203.385135 
L 155.7792 203.070609 
L 158.4576 202.771193 
L 161.136 202.485129 
L 163.8144 202.210794 
L 166.4928 201.946689 
L 169.1712 201.691433 
L 171.8496 201.443747 
L 173.846516 201.264 
L 174.528 201.202039 
L 177.2064 200.964538 
L 179.8848 200.731471 
L 182.5632 200.501894 
L 185.2416 200.274943 
L 187.92 200.04983 
L 190.5984 199.825838 
L 193.2768 199.602324 
L 195.9552 199.378712 
L 198.6336 199.154496 
L 201.312 198.92924 
L 203.9904 198.702578 
L 206.6688 198.47422 
L 209.3472 198.243949 
L 212.0256 198.011633 
L 214.704 197.777225 
L 216.26149 197.64 
L 217.3824 197.540248 
L 220.0608 197.300613 
L 222.7392 197.059276 
L 225.4176 196.816597 
L 228.096 196.573068 
L 230.7744 196.329328 
L 233.4528 196.086184 
L 236.1312 195.844624 
L 238.8096 195.605846 
L 241.488 195.37128 
L 244.1664 195.14262 
L 246.8448 194.921856 
L 249.5232 194.711312 
L 252.2016 194.513695 
L 254.88 194.332146 
L 257.5584 194.170299 
L 260.2368 194.032363 
L 260.642762 194.016 
L 262.9152 193.921845 
L 265.5936 193.845756 
L 268.272 193.811107 
L 270.9504 193.825908 
L 273.6288 193.899675 
L 275.800002 194.016 
L 276.3072 194.043163 
L 278.9856 194.265481 
L 281.664 194.584943 
L 284.3424 195.021267 
L 287.0208 195.599614 
L 289.6992 196.352933 
L 292.3776 197.325662 
L 293.078339 197.64 
L 295.056 198.532352 
L 297.7344 200.063609 
L 299.398124 201.264 
L 300.4128 202.003488 
L 303.0912 204.45627 
L 303.474331 204.888 
L 305.7696 207.540545 
L 306.443924 208.512 
L 308.448 211.497099 
L 308.795178 212.136 
L 310.718288 215.76 
L 311.1264 216.534264 
L 312.339927 219.384 
L 313.797138 223.008 
L 313.8048 223.025768 
L 315.03387 226.632 
L 316.20756 230.256 
L 316.4832 231.022158 
L 317.252493 233.88 
L 318.235581 237.504 
L 319.1616 240.728531 
L 319.236379 241.128 
L 320.053915 244.752 
L 320.766032 248.376 
L 321.30432 252 
L 321.84 252 
L 321.84 248.376 
L 321.84 244.752 
L 321.84 241.128 
L 321.84 237.504 
L 321.84 233.88 
L 321.84 230.256 
L 321.84 226.632 
L 321.84 223.008 
L 321.84 219.384 
L 321.84 215.76 
L 321.84 212.136 
L 321.84 208.512 
L 321.84 204.888 
L 321.84 201.264 
L 321.84 197.64 
L 321.84 194.016 
L 321.84 190.392 
L 321.84 186.768 
L 321.84 183.144 
L 321.84 179.52 
L 321.84 175.896 
L 321.84 172.272 
L 321.84 168.648 
L 321.84 165.024 
L 321.84 161.4 
L 321.84 157.776 
L 321.84 154.152 
L 321.84 150.528 
L 321.84 146.904 
L 321.84 143.28 
L 321.84 139.656 
L 321.84 136.032 
L 321.84 132.408 
L 321.84 128.784 
L 321.84 125.16 
L 321.84 121.536 
L 321.84 117.912 
L 321.84 114.288 
L 321.84 110.664 
L 321.84 107.04 
L 321.84 103.416 
L 321.84 99.792 
L 321.84 96.168 
L 321.84 92.544 
L 321.84 88.92 
L 321.84 85.296 
L 321.84 81.672 
L 321.84 78.048 
L 321.84 74.424 
L 321.84 70.8 
L 321.84 67.176 
L 321.84 63.552 
L 321.84 59.928 
L 321.84 56.304 
L 321.84 52.68 
L 321.84 49.056 
L 321.84 45.432 
L 321.84 41.808 
L 321.84 38.184 
L 321.84 37.8216 
L 321.304034 38.184 
L 320.952566 41.808 
L 320.555934 45.432 
L 320.138603 49.056 
L 319.710597 52.68 
L 319.274731 56.304 
L 319.1616 57.342112 
L 318.816469 59.928 
L 318.352303 63.552 
L 317.882956 67.176 
L 317.404445 70.8 
L 316.913623 74.424 
L 316.4832 77.548995 
L 316.405333 78.048 
L 315.868001 81.672 
L 315.31214 85.296 
L 314.733218 88.92 
L 314.12642 92.544 
L 313.8048 94.434882 
L 313.478988 96.168 
L 312.78594 99.792 
L 312.047702 103.416 
L 311.255038 107.04 
L 311.1264 107.618699 
L 310.381356 110.664 
L 309.426759 114.288 
L 308.448 117.682873 
L 308.375088 117.912 
L 307.183207 121.536 
L 305.845608 125.16 
L 305.7696 125.356282 
L 304.293485 128.784 
L 303.0912 131.289357 
L 302.491298 132.408 
L 300.4128 135.940721 
L 300.352471 136.032 
L 297.755425 139.656 
L 297.7344 139.682965 
L 295.056 142.752011 
L 294.53273 143.28 
L 292.3776 145.312573 
L 290.447652 146.904 
L 289.6992 147.483656 
L 287.0208 149.359299 
L 285.140198 150.528 
L 284.3424 150.998685 
L 281.664 152.452981 
L 278.9856 153.756184 
L 278.110558 154.152 
L 276.3072 154.936193 
L 273.6288 156.014795 
L 270.9504 157.008827 
L 268.733945 157.776 
L 268.272 157.931047 
L 265.5936 158.790701 
L 262.9152 159.597906 
L 260.2368 160.359309 
L 257.5584 161.080326 
L 256.32003 161.4 
L 254.88 161.764188 
L 252.2016 162.414913 
L 249.5232 163.036602 
L 246.8448 163.631784 
L 244.1664 164.202616 
L 241.488 164.750954 
L 240.108014 165.024 
L 238.8096 165.277403 
L 236.1312 165.783376 
L 233.4528 166.271192 
L 230.7744 166.741969 
L 228.096 167.196732 
L 225.4176 167.63644 
L 222.7392 168.061994 
L 220.0608 168.47426 
L 218.900113 168.648 
L 217.3824 168.872968 
L 214.704 169.259175 
L 212.0256 169.634499 
L 209.3472 169.999732 
L 206.6688 170.35567 
L 203.9904 170.703119 
L 201.312 171.042902 
L 198.6336 171.375863 
L 195.9552 171.702871 
L 193.2768 172.024828 
L 191.194915 172.272 
L 190.5984 172.342206 
L 187.92 172.654765 
L 185.2416 172.965086 
L 182.5632 173.274227 
L 179.8848 173.583307 
L 177.2064 173.893508 
L 174.528 174.206084 
L 171.8496 174.52237 
L 169.1712 174.843792 
L 166.4928 175.171874 
L 163.8144 175.508257 
L 161.136 175.854707 
L 160.827419 175.896 
L 158.4576 176.209927 
L 155.7792 176.578324 
L 153.1008 176.962473 
L 150.4224 177.364741 
L 147.744 177.787714 
L 145.0656 178.234233 
L 142.3872 178.707424 
L 139.7088 179.210749 
L 138.1658 179.52 
L 137.0304 179.744636 
L 134.352 180.31089 
L 131.6736 180.918423 
L 128.9952 181.572323 
L 126.3168 182.278345 
L 123.6384 183.043048 
L 123.311503 183.144 
L 120.96 183.858061 
L 118.2816 184.741745 
L 115.6032 185.705416 
L 112.9248 186.759935 
L 112.905994 186.768 
L 110.2464 187.884768 
L 107.568 189.119908 
L 105.065521 190.392 
L 104.8896 190.479216 
L 102.2112 191.933549 
L 99.5328 193.5458 
L 98.825064 194.016 
L 96.8544 195.286225 
L 94.176 197.207497 
L 93.63246 197.64 
L 91.4976 199.279491 
L 89.193243 201.264 
L 88.8192 201.573077 
L 86.1408 204.043972 
L 85.328051 204.888 
L 83.4624 206.735501 
L 81.8787 208.512 
L 80.784 209.674091 
L 78.747471 212.136 
L 78.1056 212.863898 
L 75.879038 215.76 
L 75.4272 216.305718 
L 73.226529 219.384 
L 72.7488 219.997104 
L 70.749562 223.008 
L 70.0704 223.933181 
L 68.412404 226.632 
L 67.392 228.109038 
L 66.18201 230.256 
L 64.7136 232.526216 
L 64.025508 233.88 
L 62.0352 237.212555 
L 61.906158 237.504 
L 59.9265 241.128 
L 59.3568 241.885113 
L 58.019695 244.752 
L 56.6784 246.554676 
L 56.144618 248.376 
L 54 249.8256 
L 54 250.5504 
z
" style="fill:#ffd000;"/>
   </g>
   <g id="PathCollection_7">
    <path clip-path="url(#pd6672b7cba)" d="M 56.6784 250.551682 
L 59.3568 249.609751 
L 62.0352 248.560285 
L 62.604026 248.376 
L 64.7136 247.352724 
L 67.392 246.224869 
L 70.0704 245.152921 
L 71.191129 244.752 
L 72.7488 244.068053 
L 75.4272 243.017196 
L 78.1056 242.022541 
L 80.644755 241.128 
L 80.784 241.072049 
L 83.4624 240.127977 
L 86.1408 239.239533 
L 88.8192 238.400894 
L 91.4976 237.608391 
L 91.88566 237.504 
L 94.176 236.840732 
L 96.8544 236.118145 
L 99.5328 235.440644 
L 102.2112 234.805378 
L 104.8896 234.209895 
L 106.490897 233.88 
L 107.568 233.647757 
L 110.2464 233.117162 
L 112.9248 232.622348 
L 115.6032 232.160896 
L 118.2816 231.73056 
L 120.96 231.329227 
L 123.6384 230.954899 
L 126.3168 230.60568 
L 128.9952 230.279763 
L 129.206748 230.256 
L 131.6736 229.972918 
L 134.352 229.686389 
L 137.0304 229.418737 
L 139.7088 229.16839 
L 142.3872 228.933877 
L 145.0656 228.713819 
L 147.744 228.506922 
L 150.4224 228.311977 
L 153.1008 228.127853 
L 155.7792 227.953494 
L 158.4576 227.787914 
L 161.136 227.630197 
L 163.8144 227.479489 
L 166.4928 227.334998 
L 169.1712 227.195993 
L 171.8496 227.061794 
L 174.528 226.931779 
L 177.2064 226.805375 
L 179.8848 226.68206 
L 180.998585 226.632 
L 182.5632 226.561117 
L 185.2416 226.442218 
L 187.92 226.325155 
L 190.5984 226.209588 
L 193.2768 226.095229 
L 195.9552 225.981835 
L 198.6336 225.869216 
L 201.312 225.757232 
L 203.9904 225.6458 
L 206.6688 225.534895 
L 209.3472 225.424556 
L 212.0256 225.31489 
L 214.704 225.20608 
L 217.3824 225.098392 
L 220.0608 224.992185 
L 222.7392 224.887921 
L 225.4176 224.786176 
L 228.096 224.687657 
L 230.7744 224.593215 
L 233.4528 224.503866 
L 236.1312 224.420809 
L 238.8096 224.345452 
L 241.488 224.279437 
L 244.1664 224.22467 
L 246.8448 224.183351 
L 249.5232 224.158016 
L 252.2016 224.151572 
L 254.88 224.167345 
L 257.5584 224.209128 
L 260.2368 224.281239 
L 262.9152 224.388578 
L 265.5936 224.536705 
L 268.272 224.731923 
L 270.9504 224.981385 
L 273.6288 225.293228 
L 276.3072 225.676772 
L 278.9856 226.142782 
L 281.31935 226.632 
L 281.664 226.701561 
L 284.3424 227.347303 
L 287.0208 228.108018 
L 289.6992 229.001296 
L 292.3776 230.049885 
L 292.820058 230.256 
L 295.056 231.215839 
L 297.7344 232.553075 
L 299.998204 233.88 
L 300.4128 234.096251 
L 303.0912 235.752316 
L 305.495008 237.504 
L 305.7696 237.672784 
L 308.448 239.66802 
L 310.034097 241.128 
L 311.1264 241.902017 
L 313.8048 244.294868 
L 314.159603 244.752 
L 316.4832 246.651201 
L 317.781578 248.376 
L 319.1616 249.107822 
L 320.23296 252 
L 321.30432 252 
L 320.766032 248.376 
L 320.053915 244.752 
L 319.236379 241.128 
L 319.1616 240.728531 
L 318.235581 237.504 
L 317.252493 233.88 
L 316.4832 231.022158 
L 316.20756 230.256 
L 315.03387 226.632 
L 313.8048 223.025768 
L 313.797138 223.008 
L 312.339927 219.384 
L 311.1264 216.534264 
L 310.718288 215.76 
L 308.795178 212.136 
L 308.448 211.497099 
L 306.443924 208.512 
L 305.7696 207.540545 
L 303.474331 204.888 
L 303.0912 204.45627 
L 300.4128 202.003488 
L 299.398124 201.264 
L 297.7344 200.063609 
L 295.056 198.532352 
L 293.078339 197.64 
L 292.3776 197.325662 
L 289.6992 196.352933 
L 287.0208 195.599614 
L 284.3424 195.021267 
L 281.664 194.584943 
L 278.9856 194.265481 
L 276.3072 194.043163 
L 275.800002 194.016 
L 273.6288 193.899675 
L 270.9504 193.825908 
L 268.272 193.811107 
L 265.5936 193.845756 
L 262.9152 193.921845 
L 260.642762 194.016 
L 260.2368 194.032363 
L 257.5584 194.170299 
L 254.88 194.332146 
L 252.2016 194.513695 
L 249.5232 194.711312 
L 246.8448 194.921856 
L 244.1664 195.14262 
L 241.488 195.37128 
L 238.8096 195.605846 
L 236.1312 195.844624 
L 233.4528 196.086184 
L 230.7744 196.329328 
L 228.096 196.573068 
L 225.4176 196.816597 
L 222.7392 197.059276 
L 220.0608 197.300613 
L 217.3824 197.540248 
L 216.26149 197.64 
L 214.704 197.777225 
L 212.0256 198.011633 
L 209.3472 198.243949 
L 206.6688 198.47422 
L 203.9904 198.702578 
L 201.312 198.92924 
L 198.6336 199.154496 
L 195.9552 199.378712 
L 193.2768 199.602324 
L 190.5984 199.825838 
L 187.92 200.04983 
L 185.2416 200.274943 
L 182.5632 200.501894 
L 179.8848 200.731471 
L 177.2064 200.964538 
L 174.528 201.202039 
L 173.846516 201.264 
L 171.8496 201.443747 
L 169.1712 201.691433 
L 166.4928 201.946689 
L 163.8144 202.210794 
L 161.136 202.485129 
L 158.4576 202.771193 
L 155.7792 203.070609 
L 153.1008 203.385135 
L 150.4224 203.716683 
L 147.744 204.067325 
L 145.0656 204.439323 
L 142.3872 204.835139 
L 142.053091 204.888 
L 139.7088 205.25282 
L 137.0304 205.698211 
L 134.352 206.174938 
L 131.6736 206.686291 
L 128.9952 207.235888 
L 126.3168 207.82773 
L 123.6384 208.466267 
L 123.461858 208.512 
L 120.96 209.143365 
L 118.2816 209.873222 
L 115.6032 210.662231 
L 112.9248 211.516698 
L 111.140428 212.136 
L 110.2464 212.435354 
L 107.568 213.41227 
L 104.8896 214.471411 
L 102.2112 215.622702 
L 101.920898 215.76 
L 99.5328 216.834091 
L 96.8544 218.144246 
L 94.534534 219.384 
L 94.176 219.56418 
L 91.4976 221.047653 
L 88.8192 222.666627 
L 88.312254 223.008 
L 86.1408 224.355056 
L 83.4624 226.181001 
L 82.873954 226.632 
L 80.784 228.077214 
L 78.1056 230.131021 
L 77.963572 230.256 
L 75.4272 232.213261 
L 73.519726 233.88 
L 72.7488 234.455443 
L 70.0704 236.759932 
L 69.346095 237.504 
L 67.392 239.123301 
L 65.380985 241.128 
L 64.7136 241.631577 
L 62.0352 244.151931 
L 61.583699 244.752 
L 59.3568 246.609651 
L 58.042554 248.376 
L 56.6784 249.103364 
L 54 250.5504 
L 54 251.2752 
z
" style="fill:#ff5900;"/>
   </g>
   <g id="PathCollection_8">
    <path clip-path="url(#pd6672b7cba)" d="M 56.6784 252 
L 59.3568 252 
L 62.0352 252 
L 64.7136 252 
L 67.392 252 
L 70.0704 252 
L 72.7488 252 
L 75.4272 252 
L 78.1056 252 
L 80.784 252 
L 83.4624 252 
L 86.1408 252 
L 88.8192 252 
L 91.4976 252 
L 94.176 252 
L 96.8544 252 
L 99.5328 252 
L 102.2112 252 
L 104.8896 252 
L 107.568 252 
L 110.2464 252 
L 112.9248 252 
L 115.6032 252 
L 118.2816 252 
L 120.96 252 
L 123.6384 252 
L 126.3168 252 
L 128.9952 252 
L 131.6736 252 
L 134.352 252 
L 137.0304 252 
L 139.7088 252 
L 142.3872 252 
L 145.0656 252 
L 147.744 252 
L 150.4224 252 
L 153.1008 252 
L 155.7792 252 
L 158.4576 252 
L 161.136 252 
L 163.8144 252 
L 166.4928 252 
L 169.1712 252 
L 171.8496 252 
L 174.528 252 
L 177.2064 252 
L 179.8848 252 
L 182.5632 252 
L 185.2416 252 
L 187.92 252 
L 190.5984 252 
L 193.2768 252 
L 195.9552 252 
L 198.6336 252 
L 201.312 252 
L 203.9904 252 
L 206.6688 252 
L 209.3472 252 
L 212.0256 252 
L 214.704 252 
L 217.3824 252 
L 220.0608 252 
L 222.7392 252 
L 225.4176 252 
L 228.096 252 
L 230.7744 252 
L 233.4528 252 
L 236.1312 252 
L 238.8096 252 
L 241.488 252 
L 244.1664 252 
L 246.8448 252 
L 249.5232 252 
L 252.2016 252 
L 254.88 252 
L 257.5584 252 
L 260.2368 252 
L 262.9152 252 
L 265.5936 252 
L 268.272 252 
L 270.9504 252 
L 273.6288 252 
L 276.3072 252 
L 278.9856 252 
L 281.664 252 
L 284.3424 252 
L 287.0208 252 
L 289.6992 252 
L 292.3776 252 
L 295.056 252 
L 297.7344 252 
L 300.4128 252 
L 303.0912 252 
L 305.7696 252 
L 308.448 252 
L 311.1264 252 
L 313.8048 252 
L 316.4832 252 
L 319.1616 252 
L 320.23296 252 
L 319.1616 249.107822 
L 317.781578 248.376 
L 316.4832 246.651201 
L 314.159603 244.752 
L 313.8048 244.294868 
L 311.1264 241.902017 
L 310.034097 241.128 
L 308.448 239.66802 
L 305.7696 237.672784 
L 305.495008 237.504 
L 303.0912 235.752316 
L 300.4128 234.096251 
L 299.998204 233.88 
L 297.7344 232.553075 
L 295.056 231.215839 
L 292.820058 230.256 
L 292.3776 230.049885 
L 289.6992 229.001296 
L 287.0208 228.108018 
L 284.3424 227.347303 
L 281.664 226.701561 
L 281.31935 226.632 
L 278.9856 226.142782 
L 276.3072 225.676772 
L 273.6288 225.293228 
L 270.9504 224.981385 
L 268.272 224.731923 
L 265.5936 224.536705 
L 262.9152 224.388578 
L 260.2368 224.281239 
L 257.5584 224.209128 
L 254.88 224.167345 
L 252.2016 224.151572 
L 249.5232 224.158016 
L 246.8448 224.183351 
L 244.1664 224.22467 
L 241.488 224.279437 
L 238.8096 224.345452 
L 236.1312 224.420809 
L 233.4528 224.503866 
L 230.7744 224.593215 
L 228.096 224.687657 
L 225.4176 224.786176 
L 222.7392 224.887921 
L 220.0608 224.992185 
L 217.3824 225.098392 
L 214.704 225.20608 
L 212.0256 225.31489 
L 209.3472 225.424556 
L 206.6688 225.534895 
L 203.9904 225.6458 
L 201.312 225.757232 
L 198.6336 225.869216 
L 195.9552 225.981835 
L 193.2768 226.095229 
L 190.5984 226.209588 
L 187.92 226.325155 
L 185.2416 226.442218 
L 182.5632 226.561117 
L 180.998585 226.632 
L 179.8848 226.68206 
L 177.2064 226.805375 
L 174.528 226.931779 
L 171.8496 227.061794 
L 169.1712 227.195993 
L 166.4928 227.334998 
L 163.8144 227.479489 
L 161.136 227.630197 
L 158.4576 227.787914 
L 155.7792 227.953494 
L 153.1008 228.127853 
L 150.4224 228.311977 
L 147.744 228.506922 
L 145.0656 228.713819 
L 142.3872 228.933877 
L 139.7088 229.16839 
L 137.0304 229.418737 
L 134.352 229.686389 
L 131.6736 229.972918 
L 129.206748 230.256 
L 128.9952 230.279763 
L 126.3168 230.60568 
L 123.6384 230.954899 
L 120.96 231.329227 
L 118.2816 231.73056 
L 115.6032 232.160896 
L 112.9248 232.622348 
L 110.2464 233.117162 
L 107.568 233.647757 
L 106.490897 233.88 
L 104.8896 234.209895 
L 102.2112 234.805378 
L 99.5328 235.440644 
L 96.8544 236.118145 
L 94.176 236.840732 
L 91.88566 237.504 
L 91.4976 237.608391 
L 88.8192 238.400894 
L 86.1408 239.239533 
L 83.4624 240.127977 
L 80.784 241.072049 
L 80.644755 241.128 
L 78.1056 242.022541 
L 75.4272 243.017196 
L 72.7488 244.068053 
L 71.191129 244.752 
L 70.0704 245.152921 
L 67.392 246.224869 
L 64.7136 247.352724 
L 62.604026 248.376 
L 62.0352 248.560285 
L 59.3568 249.609751 
L 56.6784 250.551682 
L 54 251.2752 
L 54 252 
z
" style="fill:#c40000;"/>
   </g>
   <g id="matplotlib.axis_1">
    <g id="xtick_1">
     <g id="line2d_1">
      <defs>
       <path d="M 0 0 
L 0 3.5 
" id="mb0aa79714f" style="stroke:#000000;stroke-width:0.8;"/>
      </defs>
      <g>
       <use style="stroke:#000000;stroke-width:0.8;" x="54" xlink:href="#mb0aa79714f" y="252"/>
      </g>
     </g>
     <g id="text_1">
      <!-- 0 -->
      <g transform="translate(50.81875 266.598437)scale(0.1 -0.1)">
       <defs>
        <path d="M 31.78125 66.40625 
Q 24.171875 66.40625 20.328125 58.90625 
Q 16.5 51.421875 16.5 36.375 
Q 16.5 21.390625 20.328125 13.890625 
Q 24.171875 6.390625 31.78125 6.390625 
Q 39.453125 6.390625 43.28125 13.890625 
Q 47.125 21.390625 47.125 36.375 
Q 47.125 51.421875 43.28125 58.90625 
Q 39.453125 66.40625 31.78125 66.40625 
z
M 31.78125 74.21875 
Q 44.046875 74.21875 50.515625 64.515625 
Q 56.984375 54.828125 56.984375 36.375 
Q 56.984375 17.96875 50.515625 8.265625 
Q 44.046875 -1.421875 31.78125 -1.421875 
Q 19.53125 -1.421875 13.0625 8.265625 
Q 6.59375 17.96875 6.59375 36.375 
Q 6.59375 54.828125 13.0625 64.515625 
Q 19.53125 74.21875 31.78125 74.21875 
z
" id="DejaVuSans-48"/>
       </defs>
       <use xlink:href="#DejaVuSans-48"/>
      </g>
     </g>
    </g>
    <g id="xtick_2">
     <g id="line2d_2">
      <g>
       <use style="stroke:#000000;stroke-width:0.8;" x="107.568" xlink:href="#mb0aa79714f" y="252"/>
      </g>
     </g>
     <g id="text_2">
      <!-- 20 -->
      <g transform="translate(101.2055 266.598437)scale(0.1 -0.1)">
       <defs>
        <path d="M 19.1875 8.296875 
L 53.609375 8.296875 
L 53.609375 0 
L 7.328125 0 
L 7.328125 8.296875 
Q 12.9375 14.109375 22.625 23.890625 
Q 32.328125 33.6875 34.8125 36.53125 
Q 39.546875 41.84375 41.421875 45.53125 
Q 43.3125 49.21875 43.3125 52.78125 
Q 43.3125 58.59375 39.234375 62.25 
Q 35.15625 65.921875 28.609375 65.921875 
Q 23.96875 65.921875 18.8125 64.3125 
Q 13.671875 62.703125 7.8125 59.421875 
L 7.8125 69.390625 
Q 13.765625 71.78125 18.9375 73 
Q 24.125 74.21875 28.421875 74.21875 
Q 39.75 74.21875 46.484375 68.546875 
Q 53.21875 62.890625 53.21875 53.421875 
Q 53.21875 48.921875 51.53125 44.890625 
Q 49.859375 40.875 45.40625 35.40625 
Q 44.1875 33.984375 37.640625 27.21875 
Q 31.109375 20.453125 19.1875 8.296875 
z
" id="DejaVuSans-50"/>
       </defs>
       <use xlink:href="#DejaVuSans-50"/>
       <use x="63.623047" xlink:href="#DejaVuSans-48"/>
      </g>
     </g>
    </g>
    <g id="xtick_3">
     <g id="line2d_3">
      <g>
       <use style="stroke:#000000;stroke-width:0.8;" x="161.136" xlink:href="#mb0aa79714f" y="252"/>
      </g>
     </g>
     <g id="text_3">
      <!-- 40 -->
      <g transform="translate(154.7735 266.598437)scale(0.1 -0.1)">
       <defs>
        <path d="M 37.796875 64.3125 
L 12.890625 25.390625 
L 37.796875 25.390625 
z
M 35.203125 72.90625 
L 47.609375 72.90625 
L 47.609375 25.390625 
L 58.015625 25.390625 
L 58.015625 17.1875 
L 47.609375 17.1875 
L 47.609375 0 
L 37.796875 0 
L 37.796875 17.1875 
L 4.890625 17.1875 
L 4.890625 26.703125 
z
" id="DejaVuSans-52"/>
       </defs>
       <use xlink:href="#DejaVuSans-52"/>
       <use x="63.623047" xlink:href="#DejaVuSans-48"/>
      </g>
     </g>
    </g>
    <g id="xtick_4">
     <g id="line2d_4">
      <g>
       <use style="stroke:#000000;stroke-width:0.8;" x="214.704" xlink:href="#mb0aa79714f" y="252"/>
      </g>
     </g>
     <g id="text_4">
      <!-- 60 -->
      <g transform="translate(208.3415 266.598437)scale(0.1 -0.1)">
       <defs>
        <path d="M 33.015625 40.375 
Q 26.375 40.375 22.484375 35.828125 
Q 18.609375 31.296875 18.609375 23.390625 
Q 18.609375 15.53125 22.484375 10.953125 
Q 26.375 6.390625 33.015625 6.390625 
Q 39.65625 6.390625 43.53125 10.953125 
Q 47.40625 15.53125 47.40625 23.390625 
Q 47.40625 31.296875 43.53125 35.828125 
Q 39.65625 40.375 33.015625 40.375 
z
M 52.59375 71.296875 
L 52.59375 62.3125 
Q 48.875 64.0625 45.09375 64.984375 
Q 41.3125 65.921875 37.59375 65.921875 
Q 27.828125 65.921875 22.671875 59.328125 
Q 17.53125 52.734375 16.796875 39.40625 
Q 19.671875 43.65625 24.015625 45.921875 
Q 28.375 48.1875 33.59375 48.1875 
Q 44.578125 48.1875 50.953125 41.515625 
Q 57.328125 34.859375 57.328125 23.390625 
Q 57.328125 12.15625 50.6875 5.359375 
Q 44.046875 -1.421875 33.015625 -1.421875 
Q 20.359375 -1.421875 13.671875 8.265625 
Q 6.984375 17.96875 6.984375 36.375 
Q 6.984375 53.65625 15.1875 63.9375 
Q 23.390625 74.21875 37.203125 74.21875 
Q 40.921875 74.21875 44.703125 73.484375 
Q 48.484375 72.75 52.59375 71.296875 
z
" id="DejaVuSans-54"/>
       </defs>
       <use xlink:href="#DejaVuSans-54"/>
       <use x="63.623047" xlink:href="#DejaVuSans-48"/>
      </g>
     </g>
    </g>
    <g id="xtick_5">
     <g id="line2d_5">
      <g>
       <use style="stroke:#000000;stroke-width:0.8;" x="268.272" xlink:href="#mb0aa79714f" y="252"/>
      </g>
     </g>
     <g id="text_5">
      <!-- 80 -->
      <g transform="translate(261.9095 266.598437)scale(0.1 -0.1)">
       <defs>
        <path d="M 31.78125 34.625 
Q 24.75 34.625 20.71875 30.859375 
Q 16.703125 27.09375 16.703125 20.515625 
Q 16.703125 13.921875 20.71875 10.15625 
Q 24.75 6.390625 31.78125 6.390625 
Q 38.8125 6.390625 42.859375 10.171875 
Q 46.921875 13.96875 46.921875 20.515625 
Q 46.921875 27.09375 42.890625 30.859375 
Q 38.875 34.625 31.78125 34.625 
z
M 21.921875 38.8125 
Q 15.578125 40.375 12.03125 44.71875 
Q 8.5 49.078125 8.5 55.328125 
Q 8.5 64.0625 14.71875 69.140625 
Q 20.953125 74.21875 31.78125 74.21875 
Q 42.671875 74.21875 48.875 69.140625 
Q 55.078125 64.0625 55.078125 55.328125 
Q 55.078125 49.078125 51.53125 44.71875 
Q 48 40.375 41.703125 38.8125 
Q 48.828125 37.15625 52.796875 32.3125 
Q 56.78125 27.484375 56.78125 20.515625 
Q 56.78125 9.90625 50.3125 4.234375 
Q 43.84375 -1.421875 31.78125 -1.421875 
Q 19.734375 -1.421875 13.25 4.234375 
Q 6.78125 9.90625 6.78125 20.515625 
Q 6.78125 27.484375 10.78125 32.3125 
Q 14.796875 37.15625 21.921875 38.8125 
z
M 18.3125 54.390625 
Q 18.3125 48.734375 21.84375 45.5625 
Q 25.390625 42.390625 31.78125 42.390625 
Q 38.140625 42.390625 41.71875 45.5625 
Q 45.3125 48.734375 45.3125 54.390625 
Q 45.3125 60.0625 41.71875 63.234375 
Q 38.140625 66.40625 31.78125 66.40625 
Q 25.390625 66.40625 21.84375 63.234375 
Q 18.3125 60.0625 18.3125 54.390625 
z
" id="DejaVuSans-56"/>
       </defs>
       <use xlink:href="#DejaVuSans-56"/>
       <use x="63.623047" xlink:href="#DejaVuSans-48"/>
      </g>
     </g>
    </g>
    <g id="xtick_6">
     <g id="line2d_6">
      <g>
       <use style="stroke:#000000;stroke-width:0.8;" x="321.84" xlink:href="#mb0aa79714f" y="252"/>
      </g>
     </g>
     <g id="text_6">
      <!-- 100 -->
      <g transform="translate(312.29625 266.598437)scale(0.1 -0.1)">
       <defs>
        <path d="M 12.40625 8.296875 
L 28.515625 8.296875 
L 28.515625 63.921875 
L 10.984375 60.40625 
L 10.984375 69.390625 
L 28.421875 72.90625 
L 38.28125 72.90625 
L 38.28125 8.296875 
L 54.390625 8.296875 
L 54.390625 0 
L 12.40625 0 
z
" id="DejaVuSans-49"/>
       </defs>
       <use xlink:href="#DejaVuSans-49"/>
       <use x="63.623047" xlink:href="#DejaVuSans-48"/>
       <use x="127.246094" xlink:href="#DejaVuSans-48"/>
      </g>
     </g>
    </g>
   </g>
   <g id="matplotlib.axis_2">
    <g id="ytick_1">
     <g id="line2d_7">
      <defs>
       <path d="M 0 0 
L -3.5 0 
" id="m49d8e8c669" style="stroke:#000000;stroke-width:0.8;"/>
      </defs>
      <g>
       <use style="stroke:#000000;stroke-width:0.8;" x="54" xlink:href="#m49d8e8c669" y="252"/>
      </g>
     </g>
     <g id="text_7">
      <!-- 0 -->
      <g transform="translate(40.6375 255.799219)scale(0.1 -0.1)">
       <use xlink:href="#DejaVuSans-48"/>
      </g>
     </g>
    </g>
    <g id="ytick_2">
     <g id="line2d_8">
      <g>
       <use style="stroke:#000000;stroke-width:0.8;" x="54" xlink:href="#m49d8e8c669" y="215.76"/>
      </g>
     </g>
     <g id="text_8">
      <!-- 10 -->
      <g transform="translate(34.275 219.559219)scale(0.1 -0.1)">
       <use xlink:href="#DejaVuSans-49"/>
       <use x="63.623047" xlink:href="#DejaVuSans-48"/>
      </g>
     </g>
    </g>
    <g id="ytick_3">
     <g id="line2d_9">
      <g>
       <use style="stroke:#000000;stroke-width:0.8;" x="54" xlink:href="#m49d8e8c669" y="179.52"/>
      </g>
     </g>
     <g id="text_9">
      <!-- 20 -->
      <g transform="translate(34.275 183.319219)scale(0.1 -0.1)">
       <use xlink:href="#DejaVuSans-50"/>
       <use x="63.623047" xlink:href="#DejaVuSans-48"/>
      </g>
     </g>
    </g>
    <g id="ytick_4">
     <g id="line2d_10">
      <g>
       <use style="stroke:#000000;stroke-width:0.8;" x="54" xlink:href="#m49d8e8c669" y="143.28"/>
      </g>
     </g>
     <g id="text_10">
      <!-- 30 -->
      <g transform="translate(34.275 147.079219)scale(0.1 -0.1)">
       <defs>
        <path d="M 40.578125 39.3125 
Q 47.65625 37.796875 51.625 33 
Q 55.609375 28.21875 55.609375 21.1875 
Q 55.609375 10.40625 48.1875 4.484375 
Q 40.765625 -1.421875 27.09375 -1.421875 
Q 22.515625 -1.421875 17.65625 -0.515625 
Q 12.796875 0.390625 7.625 2.203125 
L 7.625 11.71875 
Q 11.71875 9.328125 16.59375 8.109375 
Q 21.484375 6.890625 26.8125 6.890625 
Q 36.078125 6.890625 40.9375 10.546875 
Q 45.796875 14.203125 45.796875 21.1875 
Q 45.796875 27.640625 41.28125 31.265625 
Q 36.765625 34.90625 28.71875 34.90625 
L 20.21875 34.90625 
L 20.21875 43.015625 
L 29.109375 43.015625 
Q 36.375 43.015625 40.234375 45.921875 
Q 44.09375 48.828125 44.09375 54.296875 
Q 44.09375 59.90625 40.109375 62.90625 
Q 36.140625 65.921875 28.71875 65.921875 
Q 24.65625 65.921875 20.015625 65.03125 
Q 15.375 64.15625 9.8125 62.3125 
L 9.8125 71.09375 
Q 15.4375 72.65625 20.34375 73.4375 
Q 25.25 74.21875 29.59375 74.21875 
Q 40.828125 74.21875 47.359375 69.109375 
Q 53.90625 64.015625 53.90625 55.328125 
Q 53.90625 49.265625 50.4375 45.09375 
Q 46.96875 40.921875 40.578125 39.3125 
z
" id="DejaVuSans-51"/>
       </defs>
       <use xlink:href="#DejaVuSans-51"/>
       <use x="63.623047" xlink:href="#DejaVuSans-48"/>
      </g>
     </g>
    </g>
    <g id="ytick_5">
     <g id="line2d_11">
      <g>
       <use style="stroke:#000000;stroke-width:0.8;" x="54" xlink:href="#m49d8e8c669" y="107.04"/>
      </g>
     </g>
     <g id="text_11">
      <!-- 40 -->
      <g transform="translate(34.275 110.839219)scale(0.1 -0.1)">
       <use xlink:href="#DejaVuSans-52"/>
       <use x="63.623047" xlink:href="#DejaVuSans-48"/>
      </g>
     </g>
    </g>
    <g id="ytick_6">
     <g id="line2d_12">
      <g>
       <use style="stroke:#000000;stroke-width:0.8;" x="54" xlink:href="#m49d8e8c669" y="70.8"/>
      </g>
     </g>
     <g id="text_12">
      <!-- 50 -->
      <g transform="translate(34.275 74.599219)scale(0.1 -0.1)">
       <defs>
        <path d="M 10.796875 72.90625 
L 49.515625 72.90625 
L 49.515625 64.59375 
L 19.828125 64.59375 
L 19.828125 46.734375 
Q 21.96875 47.46875 24.109375 47.828125 
Q 26.265625 48.1875 28.421875 48.1875 
Q 40.625 48.1875 47.75 41.5 
Q 54.890625 34.8125 54.890625 23.390625 
Q 54.890625 11.625 47.5625 5.09375 
Q 40.234375 -1.421875 26.90625 -1.421875 
Q 22.3125 -1.421875 17.546875 -0.640625 
Q 12.796875 0.140625 7.71875 1.703125 
L 7.71875 11.625 
Q 12.109375 9.234375 16.796875 8.0625 
Q 21.484375 6.890625 26.703125 6.890625 
Q 35.15625 6.890625 40.078125 11.328125 
Q 45.015625 15.765625 45.015625 23.390625 
Q 45.015625 31 40.078125 35.4375 
Q 35.15625 39.890625 26.703125 39.890625 
Q 22.75 39.890625 18.8125 39.015625 
Q 14.890625 38.140625 10.796875 36.28125 
z
" id="DejaVuSans-53"/>
       </defs>
       <use xlink:href="#DejaVuSans-53"/>
       <use x="63.623047" xlink:href="#DejaVuSans-48"/>
      </g>
     </g>
    </g>
    <g id="ytick_7">
     <g id="line2d_13">
      <g>
       <use style="stroke:#000000;stroke-width:0.8;" x="54" xlink:href="#m49d8e8c669" y="34.56"/>
      </g>
     </g>
     <g id="text_13">
      <!-- 60 -->
      <g transform="translate(34.275 38.359219)scale(0.1 -0.1)">
       <use xlink:href="#DejaVuSans-54"/>
       <use x="63.623047" xlink:href="#DejaVuSans-48"/>
      </g>
     </g>
    </g>
   </g>
   <g id="patch_3">
    <path d="M 54 252 
L 54 34.56 
" style="fill:none;stroke:#000000;stroke-linecap:square;stroke-linejoin:miter;stroke-width:0.8;"/>
   </g>
   <g id="patch_4">
    <path d="M 321.84 252 
L 321.84 34.56 
" style="fill:none;stroke:#000000;stroke-linecap:square;stroke-linejoin:miter;stroke-width:0.8;"/>
   </g>
   <g id="patch_5">
    <path d="M 54 252 
L 321.84 252 
" style="fill:none;stroke:#000000;stroke-linecap:square;stroke-linejoin:miter;stroke-width:0.8;"/>
   </g>
   <g id="patch_6">
    <path d="M 54 34.56 
L 321.84 34.56 
" style="fill:none;stroke:#000000;stroke-linecap:square;stroke-linejoin:miter;stroke-width:0.8;"/>
   </g>
  </g>
  <g id="axes_2">
   <g id="patch_7">
    <path clip-path="url(#p782f274436)" d="M 338.58 252 
L 338.58 224.82 
L 338.58 61.74 
L 338.58 34.56 
L 349.452 34.56 
L 349.452 61.74 
L 349.452 224.82 
L 349.452 252 
z
" style="fill:#ffffff;stroke:#ffffff;stroke-linejoin:miter;stroke-width:0.01;"/>
   </g>
   <g id="QuadMesh_1">
    <path clip-path="url(#p782f274436)" d="M 338.58 252 
L 349.452 252 
L 349.452 224.82 
L 338.58 224.82 
L 338.58 252 
" style="fill:#0000c8;"/>
    <path clip-path="url(#p782f274436)" d="M 338.58 224.82 
L 349.452 224.82 
L 349.452 197.64 
L 338.58 197.64 
L 338.58 224.82 
" style="fill:#0040ff;"/>
    <path clip-path="url(#p782f274436)" d="M 338.58 197.64 
L 349.452 197.64 
L 349.452 170.46 
L 338.58 170.46 
L 338.58 197.64 
" style="fill:#00c0ff;"/>
    <path clip-path="url(#p782f274436)" d="M 338.58 170.46 
L 349.452 170.46 
L 349.452 143.28 
L 338.58 143.28 
L 338.58 170.46 
" style="fill:#49ffad;"/>
    <path clip-path="url(#p782f274436)" d="M 338.58 143.28 
L 349.452 143.28 
L 349.452 116.1 
L 338.58 116.1 
L 338.58 143.28 
" style="fill:#b1ff46;"/>
    <path clip-path="url(#p782f274436)" d="M 338.58 116.1 
L 349.452 116.1 
L 349.452 88.92 
L 338.58 88.92 
L 338.58 116.1 
" style="fill:#ffd000;"/>
    <path clip-path="url(#p782f274436)" d="M 338.58 88.92 
L 349.452 88.92 
L 349.452 61.74 
L 338.58 61.74 
L 338.58 88.92 
" style="fill:#ff5900;"/>
    <path clip-path="url(#p782f274436)" d="M 338.58 61.74 
L 349.452 61.74 
L 349.452 34.56 
L 338.58 34.56 
L 338.58 61.74 
" style="fill:#c40000;"/>
   </g>
   <g id="matplotlib.axis_3"/>
   <g id="matplotlib.axis_4">
    <g id="ytick_8">
     <g id="line2d_14">
      <defs>
       <path d="M 0 0 
L 3.5 0 
" id="mc4b7c57de1" style="stroke:#000000;stroke-width:0.8;"/>
      </defs>
      <g>
       <use style="stroke:#000000;stroke-width:0.8;" x="349.452" xlink:href="#mc4b7c57de1" y="252"/>
      </g>
     </g>
     <g id="text_14">
      <!-- 480 -->
      <g transform="translate(356.452 255.799219)scale(0.1 -0.1)">
       <use xlink:href="#DejaVuSans-52"/>
       <use x="63.623047" xlink:href="#DejaVuSans-56"/>
       <use x="127.246094" xlink:href="#DejaVuSans-48"/>
      </g>
     </g>
    </g>
    <g id="ytick_9">
     <g id="line2d_15">
      <g>
       <use style="stroke:#000000;stroke-width:0.8;" x="349.452" xlink:href="#mc4b7c57de1" y="224.82"/>
      </g>
     </g>
     <g id="text_15">
      <!-- 520 -->
      <g transform="translate(356.452 228.619219)scale(0.1 -0.1)">
       <use xlink:href="#DejaVuSans-53"/>
       <use x="63.623047" xlink:href="#DejaVuSans-50"/>
       <use x="127.246094" xlink:href="#DejaVuSans-48"/>
      </g>
     </g>
    </g>
    <g id="ytick_10">
     <g id="line2d_16">
      <g>
       <use style="stroke:#000000;stroke-width:0.8;" x="349.452" xlink:href="#mc4b7c57de1" y="197.64"/>
      </g>
     </g>
     <g id="text_16">
      <!-- 560 -->
      <g transform="translate(356.452 201.439219)scale(0.1 -0.1)">
       <use xlink:href="#DejaVuSans-53"/>
       <use x="63.623047" xlink:href="#DejaVuSans-54"/>
       <use x="127.246094" xlink:href="#DejaVuSans-48"/>
      </g>
     </g>
    </g>
    <g id="ytick_11">
     <g id="line2d_17">
      <g>
       <use style="stroke:#000000;stroke-width:0.8;" x="349.452" xlink:href="#mc4b7c57de1" y="170.46"/>
      </g>
     </g>
     <g id="text_17">
      <!-- 600 -->
      <g transform="translate(356.452 174.259219)scale(0.1 -0.1)">
       <use xlink:href="#DejaVuSans-54"/>
       <use x="63.623047" xlink:href="#DejaVuSans-48"/>
       <use x="127.246094" xlink:href="#DejaVuSans-48"/>
      </g>
     </g>
    </g>
    <g id="ytick_12">
     <g id="line2d_18">
      <g>
       <use style="stroke:#000000;stroke-width:0.8;" x="349.452" xlink:href="#mc4b7c57de1" y="143.28"/>
      </g>
     </g>
     <g id="text_18">
      <!-- 640 -->
      <g transform="translate(356.452 147.079219)scale(0.1 -0.1)">
       <use xlink:href="#DejaVuSans-54"/>
       <use x="63.623047" xlink:href="#DejaVuSans-52"/>
       <use x="127.246094" xlink:href="#DejaVuSans-48"/>
      </g>
     </g>
    </g>
    <g id="ytick_13">
     <g id="line2d_19">
      <g>
       <use style="stroke:#000000;stroke-width:0.8;" x="349.452" xlink:href="#mc4b7c57de1" y="116.1"/>
      </g>
     </g>
     <g id="text_19">
      <!-- 680 -->
      <g transform="translate(356.452 119.899219)scale(0.1 -0.1)">
       <use xlink:href="#DejaVuSans-54"/>
       <use x="63.623047" xlink:href="#DejaVuSans-56"/>
       <use x="127.246094" xlink:href="#DejaVuSans-48"/>
      </g>
     </g>
    </g>
    <g id="ytick_14">
     <g id="line2d_20">
      <g>
       <use style="stroke:#000000;stroke-width:0.8;" x="349.452" xlink:href="#mc4b7c57de1" y="88.92"/>
      </g>
     </g>
     <g id="text_20">
      <!-- 720 -->
      <g transform="translate(356.452 92.719219)scale(0.1 -0.1)">
       <defs>
        <path d="M 8.203125 72.90625 
L 55.078125 72.90625 
L 55.078125 68.703125 
L 28.609375 0 
L 18.3125 0 
L 43.21875 64.59375 
L 8.203125 64.59375 
z
" id="DejaVuSans-55"/>
       </defs>
       <use xlink:href="#DejaVuSans-55"/>
       <use x="63.623047" xlink:href="#DejaVuSans-50"/>
       <use x="127.246094" xlink:href="#DejaVuSans-48"/>
      </g>
     </g>
    </g>
    <g id="ytick_15">
     <g id="line2d_21">
      <g>
       <use style="stroke:#000000;stroke-width:0.8;" x="349.452" xlink:href="#mc4b7c57de1" y="61.74"/>
      </g>
     </g>
     <g id="text_21">
      <!-- 760 -->
      <g transform="translate(356.452 65.539219)scale(0.1 -0.1)">
       <use xlink:href="#DejaVuSans-55"/>
       <use x="63.623047" xlink:href="#DejaVuSans-54"/>
       <use x="127.246094" xlink:href="#DejaVuSans-48"/>
      </g>
     </g>
    </g>
    <g id="ytick_16">
     <g id="line2d_22">
      <g>
       <use style="stroke:#000000;stroke-width:0.8;" x="349.452" xlink:href="#mc4b7c57de1" y="34.56"/>
      </g>
     </g>
     <g id="text_22">
      <!-- 800 -->
      <g transform="translate(356.452 38.359219)scale(0.1 -0.1)">
       <use xlink:href="#DejaVuSans-56"/>
       <use x="63.623047" xlink:href="#DejaVuSans-48"/>
       <use x="127.246094" xlink:href="#DejaVuSans-48"/>
      </g>
     </g>
    </g>
   </g>
   <g id="patch_8">
    <path d="M 338.58 252 
L 338.58 224.82 
L 338.58 61.74 
L 338.58 34.56 
L 349.452 34.56 
L 349.452 61.74 
L 349.452 224.82 
L 349.452 252 
z
" style="fill:none;stroke:#000000;stroke-linejoin:miter;stroke-width:0.8;"/>
   </g>
  </g>
 </g>
 <defs>
  <clipPath id="pd6672b7cba">
   <rect height="217.44" width="267.84" x="54" y="34.56"/>
  </clipPath>
  <clipPath id="p782f274436">
   <rect height="217.44" width="10.872" x="338.58" y="34.56"/>
  </clipPath>
 </defs>
</svg>
