<?xml version="1.0" encoding="utf-8" standalone="no"?>
<!DOCTYPE svg PUBLIC "-//W3C//DTD SVG 1.1//EN"
  "http://www.w3.org/Graphics/SVG/1.1/DTD/svg11.dtd">
<!-- Created with matplotlib (https://matplotlib.org/) -->
<svg height="288pt" version="1.1" viewBox="0 0 432 288" width="432pt" xmlns="http://www.w3.org/2000/svg" xmlns:xlink="http://www.w3.org/1999/xlink">
 <metadata>
  <rdf:RDF xmlns:cc="http://creativecommons.org/ns#" xmlns:dc="http://purl.org/dc/elements/1.1/" xmlns:rdf="http://www.w3.org/1999/02/22-rdf-syntax-ns#">
   <cc:Work>
    <dc:type rdf:resource="http://purl.org/dc/dcmitype/StillImage"/>
    <dc:date>2021-07-02T20:47:36.227547</dc:date>
    <dc:format>image/svg+xml</dc:format>
    <dc:creator>
     <cc:Agent>
      <dc:title>Matplotlib v3.3.4, https://matplotlib.org/</dc:title>
     </cc:Agent>
    </dc:creator>
   </cc:Work>
  </rdf:RDF>
 </metadata>
 <defs>
  <style type="text/css">*{stroke-linecap:butt;stroke-linejoin:round;}</style>
 </defs>
 <g id="figure_1">
  <g id="patch_1">
   <path d="M 0 288 
L 432 288 
L 432 0 
L 0 0 
z
" style="fill:none;"/>
  </g>
  <g id="axes_1">
   <g id="patch_2">
    <path d="M 54 252 
L 321.84 252 
L 321.84 34.56 
L 54 34.56 
z
" style="fill:#ffffff;"/>
   </g>
   <g id="PathCollection_1">
    <path clip-path="url(#p44431ba74d)" d="M 185.2416 252 
L 187.92 252 
L 190.5984 252 
L 193.2768 252 
L 195.9552 252 
L 198.6336 252 
L 201.312 252 
L 203.9904 252 
L 206.6688 252 
L 209.3472 252 
L 212.0256 252 
L 214.704 252 
L 217.3824 252 
L 220.0608 252 
L 222.7392 252 
L 225.4176 252 
L 228.096 252 
L 230.7744 252 
L 233.4528 252 
L 236.1312 252 
L 238.8096 252 
L 241.488 252 
L 244.1664 252 
L 246.8448 252 
L 249.5232 252 
L 252.2016 252 
L 254.88 252 
L 257.5584 252 
L 260.2368 252 
L 262.9152 252 
L 265.5936 252 
L 268.272 252 
L 270.9504 252 
L 273.6288 252 
L 276.3072 252 
L 278.9856 252 
L 281.664 252 
L 284.3424 252 
L 287.0208 252 
L 289.6992 252 
L 292.3776 252 
L 295.056 252 
L 297.7344 252 
L 300.4128 252 
L 303.0912 252 
L 303.104811 252 
L 303.0912 251.983667 
L 300.4128 249.133312 
L 299.612374 248.376 
L 297.7344 246.473638 
L 295.804991 244.752 
L 295.056 244.045827 
L 292.3776 241.827041 
L 291.417096 241.128 
L 289.6992 239.825033 
L 287.0208 238.058103 
L 286.058563 237.504 
L 284.3424 236.483683 
L 281.664 235.110002 
L 278.9856 233.936677 
L 278.834959 233.88 
L 276.3072 232.905916 
L 273.6288 232.042866 
L 270.9504 231.332371 
L 268.272 230.760136 
L 265.5936 230.314277 
L 265.123422 230.256 
L 262.9152 229.977648 
L 260.2368 229.750923 
L 257.5584 229.627606 
L 254.88 229.600733 
L 252.2016 229.664259 
L 249.5232 229.81294 
L 246.8448 230.042167 
L 244.97487 230.256 
L 244.1664 230.346325 
L 241.488 230.718856 
L 238.8096 231.16069 
L 236.1312 231.669168 
L 233.4528 232.241948 
L 230.7744 232.876943 
L 228.096 233.572307 
L 227.004903 233.88 
L 225.4176 234.32069 
L 222.7392 235.12227 
L 220.0608 235.979919 
L 217.3824 236.892561 
L 215.689227 237.504 
L 214.704 237.85524 
L 212.0256 238.86409 
L 209.3472 239.925542 
L 206.6688 241.039034 
L 206.464407 241.128 
L 203.9904 242.192997 
L 201.312 243.397162 
L 198.6336 244.652187 
L 198.428902 244.752 
L 195.9552 245.94593 
L 193.2768 247.288981 
L 191.187196 248.376 
L 190.5984 248.679285 
L 187.92 250.1088 
L 185.2416 251.58819 
L 184.520379 252 
z
" style="fill:#0000c8;"/>
   </g>
   <g id="PathCollection_2">
    <path clip-path="url(#p44431ba74d)" d="M 137.0304 252 
L 139.7088 252 
L 142.3872 252 
L 145.0656 252 
L 147.744 252 
L 150.4224 252 
L 153.1008 252 
L 155.7792 252 
L 158.4576 252 
L 161.136 252 
L 163.8144 252 
L 166.4928 252 
L 169.1712 252 
L 171.8496 252 
L 174.528 252 
L 177.2064 252 
L 179.8848 252 
L 182.5632 252 
L 184.520379 252 
L 185.2416 251.58819 
L 187.92 250.1088 
L 190.5984 248.679285 
L 191.187196 248.376 
L 193.2768 247.288981 
L 195.9552 245.94593 
L 198.428902 244.752 
L 198.6336 244.652187 
L 201.312 243.397162 
L 203.9904 242.192997 
L 206.464407 241.128 
L 206.6688 241.039034 
L 209.3472 239.925542 
L 212.0256 238.86409 
L 214.704 237.85524 
L 215.689227 237.504 
L 217.3824 236.892561 
L 220.0608 235.979919 
L 222.7392 235.12227 
L 225.4176 234.32069 
L 227.004903 233.88 
L 228.096 233.572307 
L 230.7744 232.876943 
L 233.4528 232.241948 
L 236.1312 231.669168 
L 238.8096 231.16069 
L 241.488 230.718856 
L 244.1664 230.346325 
L 244.97487 230.256 
L 246.8448 230.042167 
L 249.5232 229.81294 
L 252.2016 229.664259 
L 254.88 229.600733 
L 257.5584 229.627606 
L 260.2368 229.750923 
L 262.9152 229.977648 
L 265.123422 230.256 
L 265.5936 230.314277 
L 268.272 230.760136 
L 270.9504 231.332371 
L 273.6288 232.042866 
L 276.3072 232.905916 
L 278.834959 233.88 
L 278.9856 233.936677 
L 281.664 235.110002 
L 284.3424 236.483683 
L 286.058563 237.504 
L 287.0208 238.058103 
L 289.6992 239.825033 
L 291.417096 241.128 
L 292.3776 241.827041 
L 295.056 244.045827 
L 295.804991 244.752 
L 297.7344 246.473638 
L 299.612374 248.376 
L 300.4128 249.133312 
L 303.0912 251.983667 
L 303.104811 252 
L 305.7696 252 
L 308.448 252 
L 311.1264 252 
L 313.8048 252 
L 316.4832 252 
L 319.1616 252 
L 321.84 252 
L 321.84 248.376 
L 321.84 244.752 
L 321.84 241.128 
L 321.84 237.504 
L 321.84 233.88 
L 321.84 230.256 
L 321.84 226.632 
L 321.84 223.008 
L 321.84 219.384 
L 321.84 215.76 
L 321.84 212.136 
L 321.84 208.512 
L 321.84 204.888 
L 321.84 201.264 
L 321.84 197.64 
L 321.84 194.016 
L 321.84 190.392 
L 321.84 186.768 
L 321.84 183.144 
L 321.84 179.52 
L 321.84 175.896 
L 321.84 172.272 
L 321.84 168.648 
L 321.84 165.024 
L 321.84 161.4 
L 321.84 157.776 
L 321.84 154.152 
L 321.84 150.528 
L 321.84 146.904 
L 321.84 143.28 
L 321.84 139.656 
L 321.84 136.032 
L 321.84 132.408 
L 321.84 128.784 
L 321.84 125.16 
L 321.84 121.536 
L 321.84 117.912 
L 321.84 114.288 
L 321.84 110.664 
L 321.84 107.04 
L 321.84 103.416 
L 321.84 99.792 
L 321.84 96.168 
L 321.84 92.544 
L 321.84 88.92 
L 321.84 85.296 
L 321.84 81.672 
L 321.84 78.048 
L 321.84 74.424 
L 321.84 70.8 
L 321.84 67.176 
L 321.84 63.552 
L 321.84 59.928 
L 321.84 56.304 
L 321.84 52.68 
L 321.84 49.056 
L 321.84 45.432 
L 321.84 41.808 
L 321.84 38.184 
L 321.84 41.808 
L 321.84 45.432 
L 321.84 49.056 
L 321.84 52.68 
L 321.84 56.304 
L 321.84 59.928 
L 321.84 63.552 
L 321.84 67.176 
L 321.84 70.8 
L 321.84 74.424 
L 321.84 78.048 
L 321.84 81.672 
L 321.84 85.296 
L 321.84 88.92 
L 321.84 92.544 
L 321.84 96.168 
L 321.84 99.792 
L 321.84 103.416 
L 321.84 107.04 
L 321.84 110.664 
L 321.84 114.288 
L 321.84 117.912 
L 321.84 121.536 
L 321.84 125.16 
L 321.84 128.784 
L 321.84 132.408 
L 321.84 136.032 
L 321.84 139.656 
L 321.84 143.28 
L 321.84 146.904 
L 321.84 150.528 
L 321.84 154.152 
L 321.84 157.776 
L 321.84 161.4 
L 321.84 165.024 
L 321.84 168.648 
L 321.84 172.272 
L 319.1616 172.68872 
L 316.4832 172.738925 
L 313.8048 172.822567 
L 311.1264 172.939572 
L 308.448 173.089862 
L 305.7696 173.273315 
L 303.0912 173.489796 
L 300.4128 173.739134 
L 297.7344 174.021142 
L 295.056 174.335605 
L 292.3776 174.682292 
L 289.6992 175.06096 
L 287.0208 175.471346 
L 284.452823 175.896 
L 284.3424 175.912878 
L 281.664 176.37745 
L 278.9856 176.873224 
L 276.3072 177.399999 
L 273.6288 177.957593 
L 270.9504 178.54583 
L 268.272 179.164545 
L 266.825638 179.52 
L 265.5936 179.809264 
L 262.9152 180.479213 
L 260.2368 181.17985 
L 257.5584 181.911112 
L 254.88 182.672971 
L 253.300854 183.144 
L 252.2016 183.46142 
L 249.5232 184.274927 
L 246.8448 185.119766 
L 244.1664 185.996038 
L 241.893661 186.768 
L 241.488 186.902374 
L 238.8096 187.832086 
L 236.1312 188.794371 
L 233.4528 189.789494 
L 231.889676 190.392 
L 230.7744 190.813535 
L 228.096 191.865342 
L 225.4176 192.951578 
L 222.875571 194.016 
L 222.7392 194.07217 
L 220.0608 195.218185 
L 217.3824 196.400573 
L 214.704 197.619953 
L 214.66147 197.64 
L 212.0256 198.86618 
L 209.3472 200.150935 
L 207.097133 201.264 
L 206.6688 201.473369 
L 203.9904 202.826421 
L 201.312 204.220973 
L 200.069997 204.888 
L 198.6336 205.651427 
L 195.9552 207.119668 
L 193.4907 208.512 
L 193.2768 208.631677 
L 190.5984 210.177314 
L 187.92 211.770227 
L 187.323175 212.136 
L 185.2416 213.400473 
L 182.5632 215.077335 
L 181.50487 215.76 
L 179.8848 216.796068 
L 177.2064 218.56116 
L 175.99442 219.384 
L 174.528 220.371138 
L 171.8496 222.228811 
L 170.758953 223.008 
L 169.1712 224.132577 
L 166.4928 226.087133 
L 165.76771 226.632 
L 163.8144 228.086715 
L 161.136 230.142239 
L 160.991974 230.256 
L 158.4576 232.238883 
L 156.421799 233.88 
L 155.7792 234.392833 
L 153.1008 236.592807 
L 152.023344 237.504 
L 150.4224 238.843151 
L 147.769369 241.128 
L 147.744 241.149594 
L 145.0656 243.494001 
L 143.669069 244.752 
L 142.3872 245.891787 
L 139.7088 248.341173 
L 139.671762 248.376 
L 137.0304 250.823763 
L 135.795596 252 
z
" style="fill:#0040ff;"/>
   </g>
   <g id="PathCollection_3">
    <path clip-path="url(#p44431ba74d)" d="M 104.8896 252 
L 107.568 252 
L 110.2464 252 
L 112.9248 252 
L 115.6032 252 
L 118.2816 252 
L 120.96 252 
L 123.6384 252 
L 126.3168 252 
L 128.9952 252 
L 131.6736 252 
L 134.352 252 
L 135.795596 252 
L 137.0304 250.823763 
L 139.671762 248.376 
L 139.7088 248.341173 
L 142.3872 245.891787 
L 143.669069 244.752 
L 145.0656 243.494001 
L 147.744 241.149594 
L 147.769369 241.128 
L 150.4224 238.843151 
L 152.023344 237.504 
L 153.1008 236.592807 
L 155.7792 234.392833 
L 156.421799 233.88 
L 158.4576 232.238883 
L 160.991974 230.256 
L 161.136 230.142239 
L 163.8144 228.086715 
L 165.76771 226.632 
L 166.4928 226.087133 
L 169.1712 224.132577 
L 170.758953 223.008 
L 171.8496 222.228811 
L 174.528 220.371138 
L 175.99442 219.384 
L 177.2064 218.56116 
L 179.8848 216.796068 
L 181.50487 215.76 
L 182.5632 215.077335 
L 185.2416 213.400473 
L 187.323175 212.136 
L 187.92 211.770227 
L 190.5984 210.177314 
L 193.2768 208.631677 
L 193.4907 208.512 
L 195.9552 207.119668 
L 198.6336 205.651427 
L 200.069997 204.888 
L 201.312 204.220973 
L 203.9904 202.826421 
L 206.6688 201.473369 
L 207.097133 201.264 
L 209.3472 200.150935 
L 212.0256 198.86618 
L 214.66147 197.64 
L 214.704 197.619953 
L 217.3824 196.400573 
L 220.0608 195.218185 
L 222.7392 194.07217 
L 222.875571 194.016 
L 225.4176 192.951578 
L 228.096 191.865342 
L 230.7744 190.813535 
L 231.889676 190.392 
L 233.4528 189.789494 
L 236.1312 188.794371 
L 238.8096 187.832086 
L 241.488 186.902374 
L 241.893661 186.768 
L 244.1664 185.996038 
L 246.8448 185.119766 
L 249.5232 184.274927 
L 252.2016 183.46142 
L 253.300854 183.144 
L 254.88 182.672971 
L 257.5584 181.911112 
L 260.2368 181.17985 
L 262.9152 180.479213 
L 265.5936 179.809264 
L 266.825638 179.52 
L 268.272 179.164545 
L 270.9504 178.54583 
L 273.6288 177.957593 
L 276.3072 177.399999 
L 278.9856 176.873224 
L 281.664 176.37745 
L 284.3424 175.912878 
L 284.452823 175.896 
L 287.0208 175.471346 
L 289.6992 175.06096 
L 292.3776 174.682292 
L 295.056 174.335605 
L 297.7344 174.021142 
L 300.4128 173.739134 
L 303.0912 173.489796 
L 305.7696 173.273315 
L 308.448 173.089862 
L 311.1264 172.939572 
L 313.8048 172.822567 
L 316.4832 172.738925 
L 319.1616 172.68872 
L 321.84 172.272 
L 321.84 168.648 
L 321.84 165.024 
L 321.84 161.4 
L 321.84 157.776 
L 321.84 154.152 
L 321.84 150.528 
L 321.84 146.904 
L 321.84 143.28 
L 321.84 139.656 
L 321.84 136.032 
L 321.84 132.408 
L 321.84 128.784 
L 321.84 125.16 
L 321.84 121.536 
L 321.84 117.912 
L 321.84 114.288 
L 321.84 110.664 
L 321.84 107.04 
L 321.84 103.416 
L 321.84 99.792 
L 321.84 96.168 
L 321.84 92.544 
L 321.84 88.92 
L 321.84 85.296 
L 321.84 81.672 
L 321.84 78.048 
L 321.84 74.424 
L 321.84 70.8 
L 321.84 67.176 
L 321.84 63.552 
L 321.84 59.928 
L 321.84 56.304 
L 321.84 52.68 
L 321.84 49.056 
L 321.84 45.432 
L 321.84 41.808 
L 321.84 38.184 
L 321.84 34.56 
L 319.1616 34.56 
L 316.4832 34.56 
L 313.8048 34.56 
L 311.1264 34.56 
L 310.384871 34.56 
L 308.780792 38.184 
L 308.448 39.03093 
L 307.256756 41.808 
L 305.830053 45.432 
L 305.7696 45.59947 
L 304.406092 49.056 
L 303.0912 52.537795 
L 303.032874 52.68 
L 301.631375 56.304 
L 300.4128 59.511667 
L 300.241965 59.928 
L 298.80817 63.552 
L 297.7344 66.276974 
L 297.353589 67.176 
L 295.84303 70.8 
L 295.056 72.685761 
L 294.279001 74.424 
L 292.650257 78.048 
L 292.3776 78.655281 
L 290.93072 81.672 
L 289.6992 84.194148 
L 289.125428 85.296 
L 287.211753 88.92 
L 287.0208 89.278003 
L 285.165592 92.544 
L 284.3424 93.961747 
L 282.979754 96.168 
L 281.664 98.252663 
L 280.631699 99.792 
L 278.9856 102.194375 
L 278.097229 103.416 
L 276.3072 105.825355 
L 275.350592 107.04 
L 273.6288 109.180011 
L 272.364757 110.664 
L 270.9504 112.289419 
L 269.111912 114.288 
L 268.272 115.181822 
L 265.5936 117.883293 
L 265.563933 117.912 
L 262.9152 120.426254 
L 261.686368 121.536 
L 260.2368 122.820158 
L 257.5584 125.084686 
L 257.466542 125.16 
L 254.88 127.243821 
L 252.885391 128.784 
L 252.2016 129.302829 
L 249.5232 131.280335 
L 247.94714 132.408 
L 246.8448 133.184172 
L 244.1664 135.026282 
L 242.66954 136.032 
L 241.488 136.814299 
L 238.8096 138.557127 
L 237.0904 139.656 
L 236.1312 140.260943 
L 233.4528 141.932983 
L 231.264903 143.28 
L 230.7744 143.578328 
L 228.096 145.202548 
L 225.4176 146.810626 
L 225.262325 146.904 
L 222.7392 148.405987 
L 220.0608 149.993985 
L 219.162752 150.528 
L 217.3824 151.57706 
L 214.704 153.159662 
L 213.032316 154.152 
L 212.0256 154.744746 
L 209.3472 156.334807 
L 206.935998 157.776 
L 206.6688 157.93455 
L 203.9904 159.543649 
L 201.312 161.168761 
L 200.936127 161.4 
L 198.6336 162.808373 
L 195.9552 164.468933 
L 195.073758 165.024 
L 193.2768 166.149883 
L 190.5984 167.856066 
L 189.376937 168.648 
L 187.92 169.58844 
L 185.2416 171.350418 
L 183.868089 172.272 
L 182.5632 173.144164 
L 179.8848 174.972355 
L 178.560714 175.896 
L 177.2064 176.837527 
L 174.528 178.74283 
L 173.460749 179.52 
L 171.8496 180.68968 
L 169.1712 182.683702 
L 168.567899 183.144 
L 166.4928 184.722823 
L 163.878173 186.768 
L 163.8144 186.817732 
L 161.136 188.960414 
L 159.397877 190.392 
L 158.4576 191.164112 
L 155.7792 193.427376 
L 155.10231 194.016 
L 153.1008 195.751036 
L 150.989021 197.64 
L 150.4224 198.144966 
L 147.744 200.605009 
L 147.048492 201.264 
L 145.0656 203.135016 
L 143.268165 204.888 
L 142.3872 205.74296 
L 139.7088 208.430089 
L 139.629688 208.512 
L 137.0304 211.187826 
L 136.140453 212.136 
L 134.352 214.028518 
L 132.771407 215.76 
L 131.6736 216.953013 
L 129.513144 219.384 
L 128.9952 219.961386 
L 126.356044 223.008 
L 126.3168 223.052817 
L 123.6384 226.217146 
L 123.299515 226.632 
L 120.96 229.459327 
L 120.323866 230.256 
L 118.2816 232.776115 
L 117.418274 233.88 
L 115.6032 236.161971 
L 114.57284 237.504 
L 112.9248 239.6098 
L 111.77755 241.128 
L 110.2464 243.11086 
L 109.022209 244.752 
L 107.568 246.654711 
L 106.296356 248.376 
L 104.8896 250.229227 
L 103.589153 252 
z
" style="fill:#00c0ff;"/>
   </g>
   <g id="PathCollection_4">
    <path clip-path="url(#p44431ba74d)" d="M 80.784 252 
L 83.4624 252 
L 86.1408 252 
L 88.8192 252 
L 91.4976 252 
L 94.176 252 
L 96.8544 252 
L 99.5328 252 
L 102.2112 252 
L 103.589153 252 
L 104.8896 250.229227 
L 106.296356 248.376 
L 107.568 246.654711 
L 109.022209 244.752 
L 110.2464 243.11086 
L 111.77755 241.128 
L 112.9248 239.6098 
L 114.57284 237.504 
L 115.6032 236.161971 
L 117.418274 233.88 
L 118.2816 232.776115 
L 120.323866 230.256 
L 120.96 229.459327 
L 123.299515 226.632 
L 123.6384 226.217146 
L 126.3168 223.052817 
L 126.356044 223.008 
L 128.9952 219.961386 
L 129.513144 219.384 
L 131.6736 216.953013 
L 132.771407 215.76 
L 134.352 214.028518 
L 136.140453 212.136 
L 137.0304 211.187826 
L 139.629688 208.512 
L 139.7088 208.430089 
L 142.3872 205.74296 
L 143.268165 204.888 
L 145.0656 203.135016 
L 147.048492 201.264 
L 147.744 200.605009 
L 150.4224 198.144966 
L 150.989021 197.64 
L 153.1008 195.751036 
L 155.10231 194.016 
L 155.7792 193.427376 
L 158.4576 191.164112 
L 159.397877 190.392 
L 161.136 188.960414 
L 163.8144 186.817732 
L 163.878173 186.768 
L 166.4928 184.722823 
L 168.567899 183.144 
L 169.1712 182.683702 
L 171.8496 180.68968 
L 173.460749 179.52 
L 174.528 178.74283 
L 177.2064 176.837527 
L 178.560714 175.896 
L 179.8848 174.972355 
L 182.5632 173.144164 
L 183.868089 172.272 
L 185.2416 171.350418 
L 187.92 169.58844 
L 189.376937 168.648 
L 190.5984 167.856066 
L 193.2768 166.149883 
L 195.073758 165.024 
L 195.9552 164.468933 
L 198.6336 162.808373 
L 200.936127 161.4 
L 201.312 161.168761 
L 203.9904 159.543649 
L 206.6688 157.93455 
L 206.935998 157.776 
L 209.3472 156.334807 
L 212.0256 154.744746 
L 213.032316 154.152 
L 214.704 153.159662 
L 217.3824 151.57706 
L 219.162752 150.528 
L 220.0608 149.993985 
L 222.7392 148.405987 
L 225.262325 146.904 
L 225.4176 146.810626 
L 228.096 145.202548 
L 230.7744 143.578328 
L 231.264903 143.28 
L 233.4528 141.932983 
L 236.1312 140.260943 
L 237.0904 139.656 
L 238.8096 138.557127 
L 241.488 136.814299 
L 242.66954 136.032 
L 244.1664 135.026282 
L 246.8448 133.184172 
L 247.94714 132.408 
L 249.5232 131.280335 
L 252.2016 129.302829 
L 252.885391 128.784 
L 254.88 127.243821 
L 257.466542 125.16 
L 257.5584 125.084686 
L 260.2368 122.820158 
L 261.686368 121.536 
L 262.9152 120.426254 
L 265.563933 117.912 
L 265.5936 117.883293 
L 268.272 115.181822 
L 269.111912 114.288 
L 270.9504 112.289419 
L 272.364757 110.664 
L 273.6288 109.180011 
L 275.350592 107.04 
L 276.3072 105.825355 
L 278.097229 103.416 
L 278.9856 102.194375 
L 280.631699 99.792 
L 281.664 98.252663 
L 282.979754 96.168 
L 284.3424 93.961747 
L 285.165592 92.544 
L 287.0208 89.278003 
L 287.211753 88.92 
L 289.125428 85.296 
L 289.6992 84.194148 
L 290.93072 81.672 
L 292.3776 78.655281 
L 292.650257 78.048 
L 294.279001 74.424 
L 295.056 72.685761 
L 295.84303 70.8 
L 297.353589 67.176 
L 297.7344 66.276974 
L 298.80817 63.552 
L 300.241965 59.928 
L 300.4128 59.511667 
L 301.631375 56.304 
L 303.032874 52.68 
L 303.0912 52.537795 
L 304.406092 49.056 
L 305.7696 45.59947 
L 305.830053 45.432 
L 307.256756 41.808 
L 308.448 39.03093 
L 308.780792 38.184 
L 310.384871 34.56 
L 308.448 34.56 
L 305.7696 34.56 
L 303.0912 34.56 
L 300.4128 34.56 
L 297.7344 34.56 
L 295.056 34.56 
L 292.3776 34.56 
L 289.6992 34.56 
L 289.095775 34.56 
L 287.0208 37.413847 
L 286.434084 38.184 
L 284.3424 41.045582 
L 283.757807 41.808 
L 281.664 44.638787 
L 281.048227 45.432 
L 278.9856 48.172931 
L 278.288077 49.056 
L 276.3072 51.631686 
L 275.461137 52.68 
L 273.6288 55.002674 
L 272.551936 56.304 
L 270.9504 58.277063 
L 269.54557 59.928 
L 268.272 61.449117 
L 266.427588 63.552 
L 265.5936 64.515731 
L 263.18397 67.176 
L 262.9152 67.476009 
L 260.2368 70.341492 
L 259.790073 70.8 
L 257.5584 73.110666 
L 256.235636 74.424 
L 254.88 75.77936 
L 252.516357 78.048 
L 252.2016 78.351726 
L 249.5232 80.846617 
L 248.604338 81.672 
L 246.8448 83.259041 
L 244.502482 85.296 
L 244.1664 85.589123 
L 241.488 87.857017 
L 240.192024 88.92 
L 238.8096 90.056352 
L 236.1312 92.193052 
L 235.680361 92.544 
L 233.4528 94.280848 
L 230.963438 96.168 
L 230.7744 96.31144 
L 228.096 98.304333 
L 226.048338 99.792 
L 225.4176 100.250577 
L 222.7392 102.164322 
L 220.95392 103.416 
L 220.0608 104.042602 
L 217.3824 105.894653 
L 215.701398 107.04 
L 214.704 107.720095 
L 212.0256 109.526007 
L 210.319006 110.664 
L 209.3472 111.31265 
L 206.6688 113.086459 
L 204.84049 114.288 
L 203.9904 114.847383 
L 201.312 116.601985 
L 199.303385 117.912 
L 198.6336 118.349567 
L 195.9552 120.097037 
L 193.747093 121.536 
L 193.2768 121.84314 
L 190.5984 123.595082 
L 188.211124 125.16 
L 187.92 125.351357 
L 185.2416 127.119204 
L 182.733377 128.784 
L 182.5632 128.897328 
L 179.8848 130.692714 
L 177.348866 132.408 
L 177.2064 132.504746 
L 174.528 134.339832 
L 172.088513 136.032 
L 171.8496 136.1985 
L 169.1712 138.08642 
L 166.978478 139.656 
L 166.4928 140.00554 
L 163.8144 141.960823 
L 162.039495 143.28 
L 161.136 143.955664 
L 158.4576 145.994826 
L 157.286663 146.904 
L 155.7792 148.082618 
L 153.1008 150.224803 
L 152.729279 150.528 
L 150.4224 152.425232 
L 148.378067 154.152 
L 147.744 154.691698 
L 145.0656 157.028912 
L 144.232075 157.776 
L 142.3872 159.443531 
L 140.288526 161.4 
L 139.7088 161.944922 
L 137.0304 164.538675 
L 136.544229 165.024 
L 134.352 167.232007 
L 132.993952 168.648 
L 131.6736 170.036583 
L 129.622832 172.272 
L 128.9952 172.96178 
L 126.422186 175.896 
L 126.3168 176.017111 
L 123.6384 179.208503 
L 123.386755 179.52 
L 120.96 182.548301 
L 120.501253 183.144 
L 118.2816 186.047615 
L 117.752853 186.768 
L 115.6032 189.71597 
L 115.130282 190.392 
L 112.9248 193.562293 
L 112.622244 194.016 
L 110.2464 197.594627 
L 110.217548 197.64 
L 107.912979 201.264 
L 107.568 201.806741 
L 105.693292 204.888 
L 104.8896 206.207655 
L 103.547349 208.512 
L 102.2112 210.799153 
L 101.464873 212.136 
L 99.5328 215.57887 
L 99.435753 215.76 
L 97.467191 219.384 
L 96.8544 220.498466 
L 95.537754 223.008 
L 94.176 225.565705 
L 93.634858 226.632 
L 91.756806 230.256 
L 91.4976 230.742714 
L 89.905307 233.88 
L 88.8192 235.961123 
L 88.052519 237.504 
L 86.188977 241.128 
L 86.1408 241.217767 
L 84.332421 244.752 
L 83.4624 246.376792 
L 82.441571 248.376 
L 80.784 251.45271 
L 80.50255 252 
z
" style="fill:#49ffad;"/>
   </g>
   <g id="PathCollection_5">
    <path clip-path="url(#p44431ba74d)" d="M 64.7136 252 
L 67.392 252 
L 70.0704 252 
L 72.7488 252 
L 75.4272 252 
L 78.1056 252 
L 80.50255 252 
L 80.784 251.45271 
L 82.441571 248.376 
L 83.4624 246.376792 
L 84.332421 244.752 
L 86.1408 241.217767 
L 86.188977 241.128 
L 88.052519 237.504 
L 88.8192 235.961123 
L 89.905307 233.88 
L 91.4976 230.742714 
L 91.756806 230.256 
L 93.634858 226.632 
L 94.176 225.565705 
L 95.537754 223.008 
L 96.8544 220.498466 
L 97.467191 219.384 
L 99.435753 215.76 
L 99.5328 215.57887 
L 101.464873 212.136 
L 102.2112 210.799153 
L 103.547349 208.512 
L 104.8896 206.207655 
L 105.693292 204.888 
L 107.568 201.806741 
L 107.912979 201.264 
L 110.217548 197.64 
L 110.2464 197.594627 
L 112.622244 194.016 
L 112.9248 193.562293 
L 115.130282 190.392 
L 115.6032 189.71597 
L 117.752853 186.768 
L 118.2816 186.047615 
L 120.501253 183.144 
L 120.96 182.548301 
L 123.386755 179.52 
L 123.6384 179.208503 
L 126.3168 176.017111 
L 126.422186 175.896 
L 128.9952 172.96178 
L 129.622832 172.272 
L 131.6736 170.036583 
L 132.993952 168.648 
L 134.352 167.232007 
L 136.544229 165.024 
L 137.0304 164.538675 
L 139.7088 161.944922 
L 140.288526 161.4 
L 142.3872 159.443531 
L 144.232075 157.776 
L 145.0656 157.028912 
L 147.744 154.691698 
L 148.378067 154.152 
L 150.4224 152.425232 
L 152.729279 150.528 
L 153.1008 150.224803 
L 155.7792 148.082618 
L 157.286663 146.904 
L 158.4576 145.994826 
L 161.136 143.955664 
L 162.039495 143.28 
L 163.8144 141.960823 
L 166.4928 140.00554 
L 166.978478 139.656 
L 169.1712 138.08642 
L 171.8496 136.1985 
L 172.088513 136.032 
L 174.528 134.339832 
L 177.2064 132.504746 
L 177.348866 132.408 
L 179.8848 130.692714 
L 182.5632 128.897328 
L 182.733377 128.784 
L 185.2416 127.119204 
L 187.92 125.351357 
L 188.211124 125.16 
L 190.5984 123.595082 
L 193.2768 121.84314 
L 193.747093 121.536 
L 195.9552 120.097037 
L 198.6336 118.349567 
L 199.303385 117.912 
L 201.312 116.601985 
L 203.9904 114.847383 
L 204.84049 114.288 
L 206.6688 113.086459 
L 209.3472 111.31265 
L 210.319006 110.664 
L 212.0256 109.526007 
L 214.704 107.720095 
L 215.701398 107.04 
L 217.3824 105.894653 
L 220.0608 104.042602 
L 220.95392 103.416 
L 222.7392 102.164322 
L 225.4176 100.250577 
L 226.048338 99.792 
L 228.096 98.304333 
L 230.7744 96.31144 
L 230.963438 96.168 
L 233.4528 94.280848 
L 235.680361 92.544 
L 236.1312 92.193052 
L 238.8096 90.056352 
L 240.192024 88.92 
L 241.488 87.857017 
L 244.1664 85.589123 
L 244.502482 85.296 
L 246.8448 83.259041 
L 248.604338 81.672 
L 249.5232 80.846617 
L 252.2016 78.351726 
L 252.516357 78.048 
L 254.88 75.77936 
L 256.235636 74.424 
L 257.5584 73.110666 
L 259.790073 70.8 
L 260.2368 70.341492 
L 262.9152 67.476009 
L 263.18397 67.176 
L 265.5936 64.515731 
L 266.427588 63.552 
L 268.272 61.449117 
L 269.54557 59.928 
L 270.9504 58.277063 
L 272.551936 56.304 
L 273.6288 55.002674 
L 275.461137 52.68 
L 276.3072 51.631686 
L 278.288077 49.056 
L 278.9856 48.172931 
L 281.048227 45.432 
L 281.664 44.638787 
L 283.757807 41.808 
L 284.3424 41.045582 
L 286.434084 38.184 
L 287.0208 37.413847 
L 289.095775 34.56 
L 287.0208 34.56 
L 284.3424 34.56 
L 281.664 34.56 
L 278.9856 34.56 
L 276.3072 34.56 
L 273.6288 34.56 
L 270.9504 34.56 
L 268.272 34.56 
L 265.5936 34.56 
L 262.9152 34.56 
L 260.2368 34.56 
L 257.5584 34.56 
L 255.310117 34.56 
L 254.88 34.93829 
L 252.2016 37.227717 
L 251.051598 38.184 
L 249.5232 39.478463 
L 246.8448 41.684405 
L 246.690765 41.808 
L 244.1664 43.866178 
L 242.193256 45.432 
L 241.488 45.99991 
L 238.8096 48.101666 
L 237.562405 49.056 
L 236.1312 50.165281 
L 233.4528 52.190019 
L 232.789546 52.68 
L 230.7744 54.185713 
L 228.096 56.139726 
L 227.866084 56.304 
L 225.4176 58.071345 
L 222.786788 59.928 
L 222.7392 59.961902 
L 220.0608 61.834021 
L 217.551444 63.552 
L 217.3824 63.668738 
L 214.704 65.486549 
L 212.167587 67.176 
L 212.0256 67.271345 
L 209.3472 69.042186 
L 206.6688 70.783443 
L 206.642978 70.8 
L 203.9904 72.514296 
L 201.312 74.219909 
L 200.987505 74.424 
L 198.6336 75.916153 
L 195.9552 77.59286 
L 195.220106 78.048 
L 193.2768 79.260862 
L 190.5984 80.915244 
L 189.361587 81.672 
L 187.92 82.5614 
L 185.2416 84.199979 
L 183.436273 85.296 
L 182.5632 85.830724 
L 179.8848 87.460062 
L 177.471707 88.92 
L 177.2064 89.082036 
L 174.528 90.708885 
L 171.8496 92.330735 
L 171.4958 92.544 
L 169.1712 93.96058 
L 166.4928 95.591014 
L 165.542873 96.168 
L 163.8144 97.230544 
L 161.136 98.877795 
L 159.650659 99.792 
L 158.4576 100.536125 
L 155.7792 102.209664 
L 153.856834 103.416 
L 153.1008 103.897485 
L 150.4224 105.608541 
L 148.200317 107.04 
L 147.744 107.338829 
L 145.0656 109.101097 
L 142.720118 110.664 
L 142.3872 110.889943 
L 139.7088 112.720579 
L 137.453839 114.288 
L 137.0304 114.588415 
L 134.352 116.509365 
L 132.435546 117.912 
L 131.6736 118.482541 
L 128.9952 120.522501 
L 127.693505 121.536 
L 126.3168 122.635574 
L 123.6384 124.832759 
L 123.247737 125.16 
L 120.96 127.131666 
L 119.106888 128.784 
L 118.2816 129.541961 
L 115.6032 132.084776 
L 115.272827 132.408 
L 112.9248 134.782429 
L 111.73793 136.032 
L 110.2464 137.657147 
L 108.487717 139.656 
L 107.568 140.739196 
L 105.503241 143.28 
L 104.8896 144.063522 
L 102.763424 146.904 
L 102.2112 147.670565 
L 100.246105 150.528 
L 99.5328 151.60735 
L 97.928924 154.152 
L 96.8544 155.929001 
L 95.790024 157.776 
L 94.176 160.700885 
L 93.808558 161.4 
L 91.970187 165.024 
L 91.4976 165.98925 
L 90.258073 168.648 
L 88.8192 171.877348 
L 88.65183 172.272 
L 87.149518 175.896 
L 86.1408 178.431142 
L 85.728566 179.52 
L 84.387628 183.144 
L 83.4624 185.73079 
L 83.109641 186.768 
L 81.895756 190.392 
L 80.784 193.826664 
L 80.725788 194.016 
L 79.611151 197.64 
L 78.527412 201.264 
L 78.1056 202.67762 
L 77.480775 204.888 
L 76.462505 208.512 
L 75.458053 212.136 
L 75.4272 212.24451 
L 74.484563 215.76 
L 73.515323 219.384 
L 72.7488 222.215329 
L 72.547464 223.008 
L 71.591934 226.632 
L 70.617537 230.256 
L 70.0704 232.195437 
L 69.629015 233.88 
L 68.620787 237.504 
L 67.549963 241.128 
L 67.392 241.610377 
L 66.444144 244.752 
L 65.227846 248.376 
L 64.7136 249.723352 
L 63.901034 252 
z
" style="fill:#b1ff46;"/>
   </g>
   <g id="PathCollection_6">
    <path clip-path="url(#p44431ba74d)" d="M 56.6784 252 
L 59.3568 252 
L 62.0352 252 
L 63.901034 252 
L 64.7136 249.723352 
L 65.227846 248.376 
L 66.444144 244.752 
L 67.392 241.610377 
L 67.549963 241.128 
L 68.620787 237.504 
L 69.629015 233.88 
L 70.0704 232.195437 
L 70.617537 230.256 
L 71.591934 226.632 
L 72.547464 223.008 
L 72.7488 222.215329 
L 73.515323 219.384 
L 74.484563 215.76 
L 75.4272 212.24451 
L 75.458053 212.136 
L 76.462505 208.512 
L 77.480775 204.888 
L 78.1056 202.67762 
L 78.527412 201.264 
L 79.611151 197.64 
L 80.725788 194.016 
L 80.784 193.826664 
L 81.895756 190.392 
L 83.109641 186.768 
L 83.4624 185.73079 
L 84.387628 183.144 
L 85.728566 179.52 
L 86.1408 178.431142 
L 87.149518 175.896 
L 88.65183 172.272 
L 88.8192 171.877348 
L 90.258073 168.648 
L 91.4976 165.98925 
L 91.970187 165.024 
L 93.808558 161.4 
L 94.176 160.700885 
L 95.790024 157.776 
L 96.8544 155.929001 
L 97.928924 154.152 
L 99.5328 151.60735 
L 100.246105 150.528 
L 102.2112 147.670565 
L 102.763424 146.904 
L 104.8896 144.063522 
L 105.503241 143.28 
L 107.568 140.739196 
L 108.487717 139.656 
L 110.2464 137.657147 
L 111.73793 136.032 
L 112.9248 134.782429 
L 115.272827 132.408 
L 115.6032 132.084776 
L 118.2816 129.541961 
L 119.106888 128.784 
L 120.96 127.131666 
L 123.247737 125.16 
L 123.6384 124.832759 
L 126.3168 122.635574 
L 127.693505 121.536 
L 128.9952 120.522501 
L 131.6736 118.482541 
L 132.435546 117.912 
L 134.352 116.509365 
L 137.0304 114.588415 
L 137.453839 114.288 
L 139.7088 112.720579 
L 142.3872 110.889943 
L 142.720118 110.664 
L 145.0656 109.101097 
L 147.744 107.338829 
L 148.200317 107.04 
L 150.4224 105.608541 
L 153.1008 103.897485 
L 153.856834 103.416 
L 155.7792 102.209664 
L 158.4576 100.536125 
L 159.650659 99.792 
L 161.136 98.877795 
L 163.8144 97.230544 
L 165.542873 96.168 
L 166.4928 95.591014 
L 169.1712 93.96058 
L 171.4958 92.544 
L 171.8496 92.330735 
L 174.528 90.708885 
L 177.2064 89.082036 
L 177.471707 88.92 
L 179.8848 87.460062 
L 182.5632 85.830724 
L 183.436273 85.296 
L 185.2416 84.199979 
L 187.92 82.5614 
L 189.361587 81.672 
L 190.5984 80.915244 
L 193.2768 79.260862 
L 195.220106 78.048 
L 195.9552 77.59286 
L 198.6336 75.916153 
L 200.987505 74.424 
L 201.312 74.219909 
L 203.9904 72.514296 
L 206.642978 70.8 
L 206.6688 70.783443 
L 209.3472 69.042186 
L 212.0256 67.271345 
L 212.167587 67.176 
L 214.704 65.486549 
L 217.3824 63.668738 
L 217.551444 63.552 
L 220.0608 61.834021 
L 222.7392 59.961902 
L 222.786788 59.928 
L 225.4176 58.071345 
L 227.866084 56.304 
L 228.096 56.139726 
L 230.7744 54.185713 
L 232.789546 52.68 
L 233.4528 52.190019 
L 236.1312 50.165281 
L 237.562405 49.056 
L 238.8096 48.101666 
L 241.488 45.99991 
L 242.193256 45.432 
L 244.1664 43.866178 
L 246.690765 41.808 
L 246.8448 41.684405 
L 249.5232 39.478463 
L 251.051598 38.184 
L 252.2016 37.227717 
L 254.88 34.93829 
L 255.310117 34.56 
L 254.88 34.56 
L 252.2016 34.56 
L 249.5232 34.56 
L 246.8448 34.56 
L 244.1664 34.56 
L 241.488 34.56 
L 238.8096 34.56 
L 236.1312 34.56 
L 233.4528 34.56 
L 230.7744 34.56 
L 228.096 34.56 
L 225.4176 34.56 
L 222.7392 34.56 
L 220.0608 34.56 
L 217.3824 34.56 
L 214.704 34.56 
L 212.0256 34.56 
L 209.3472 34.56 
L 206.6688 34.56 
L 203.9904 34.56 
L 203.533413 34.56 
L 201.312 35.86422 
L 198.6336 37.414287 
L 197.284582 38.184 
L 195.9552 38.950033 
L 193.2768 40.471673 
L 190.891109 41.808 
L 190.5984 41.973573 
L 187.92 43.46748 
L 185.2416 44.940474 
L 184.335062 45.432 
L 182.5632 46.402402 
L 179.8848 47.848672 
L 177.616769 49.056 
L 177.2064 49.276747 
L 174.528 50.6967 
L 171.8496 52.096388 
L 170.715741 52.68 
L 169.1712 53.484144 
L 166.4928 54.85776 
L 163.8144 56.210903 
L 163.62696 56.304 
L 161.136 57.557278 
L 158.4576 58.884002 
L 156.314772 59.928 
L 155.7792 60.192686 
L 153.1008 61.492459 
L 150.4224 62.77061 
L 148.753524 63.552 
L 147.744 64.03267 
L 145.0656 65.282452 
L 142.3872 66.509203 
L 140.898741 67.176 
L 139.7088 67.71987 
L 137.0304 68.916113 
L 134.352 70.087466 
L 132.680741 70.8 
L 131.6736 71.239972 
L 128.9952 72.37789 
L 126.3168 73.488633 
L 123.998323 74.424 
L 123.6384 74.573617 
L 120.96 75.647092 
L 118.2816 76.690715 
L 115.6032 77.702926 
L 114.648841 78.048 
L 112.9248 78.696778 
L 110.2464 79.665283 
L 107.568 80.599197 
L 104.8896 81.496767 
L 104.331813 81.672 
L 102.2112 82.375628 
L 99.5328 83.221082 
L 96.8544 84.026671 
L 94.176 84.790609 
L 92.273336 85.296 
L 91.4976 85.518533 
L 88.8192 86.219087 
L 86.1408 86.874167 
L 83.4624 87.48213 
L 80.784 88.04144 
L 78.1056 88.550698 
L 75.906102 88.92 
L 75.4272 89.012639 
L 72.7488 89.437396 
L 70.0704 89.808053 
L 67.392 90.123496 
L 64.7136 90.382805 
L 62.0352 90.585232 
L 59.3568 90.730216 
L 56.6784 90.817361 
L 54 88.92 
L 54 85.296 
L 54 81.672 
L 54 78.048 
L 54 74.424 
L 54 70.8 
L 54 67.176 
L 54 63.552 
L 54 59.928 
L 54 56.304 
L 54 52.68 
L 54 49.056 
L 54 45.432 
L 54 41.808 
L 54 38.184 
L 54 34.56 
L 54 38.184 
L 54 41.808 
L 54 45.432 
L 54 49.056 
L 54 52.68 
L 54 56.304 
L 54 59.928 
L 54 63.552 
L 54 67.176 
L 54 70.8 
L 54 74.424 
L 54 78.048 
L 54 81.672 
L 54 85.296 
L 54 88.92 
L 54 92.544 
L 54 96.168 
L 54 99.792 
L 54 103.416 
L 54 107.04 
L 54 110.664 
L 54 114.288 
L 54 117.912 
L 54 121.536 
L 54 125.16 
L 54 128.784 
L 54 132.408 
L 54 136.032 
L 54 139.656 
L 54 143.28 
L 54 146.904 
L 54 150.528 
L 54 154.152 
L 54 157.776 
L 54 161.4 
L 54 165.024 
L 54 168.648 
L 54 172.272 
L 54 175.896 
L 54 179.52 
L 54 183.144 
L 54 186.768 
L 54 190.392 
L 54 194.016 
L 54 197.64 
L 54 201.264 
L 54 204.888 
L 54 208.512 
L 54 212.136 
L 54 215.76 
L 54 219.384 
L 54 223.008 
L 54 226.632 
L 54 230.256 
L 54 233.88 
L 54 237.504 
L 54 241.128 
L 54 244.752 
L 54 248.376 
L 54 252 
z
" style="fill:#ffd000;"/>
   </g>
   <g id="PathCollection_7">
    <path clip-path="url(#p44431ba74d)" d="M 56.6784 90.817361 
L 59.3568 90.730216 
L 62.0352 90.585232 
L 64.7136 90.382805 
L 67.392 90.123496 
L 70.0704 89.808053 
L 72.7488 89.437396 
L 75.4272 89.012639 
L 75.906102 88.92 
L 78.1056 88.550698 
L 80.784 88.04144 
L 83.4624 87.48213 
L 86.1408 86.874167 
L 88.8192 86.219087 
L 91.4976 85.518533 
L 92.273336 85.296 
L 94.176 84.790609 
L 96.8544 84.026671 
L 99.5328 83.221082 
L 102.2112 82.375628 
L 104.331813 81.672 
L 104.8896 81.496767 
L 107.568 80.599197 
L 110.2464 79.665283 
L 112.9248 78.696778 
L 114.648841 78.048 
L 115.6032 77.702926 
L 118.2816 76.690715 
L 120.96 75.647092 
L 123.6384 74.573617 
L 123.998323 74.424 
L 126.3168 73.488633 
L 128.9952 72.37789 
L 131.6736 71.239972 
L 132.680741 70.8 
L 134.352 70.087466 
L 137.0304 68.916113 
L 139.7088 67.71987 
L 140.898741 67.176 
L 142.3872 66.509203 
L 145.0656 65.282452 
L 147.744 64.03267 
L 148.753524 63.552 
L 150.4224 62.77061 
L 153.1008 61.492459 
L 155.7792 60.192686 
L 156.314772 59.928 
L 158.4576 58.884002 
L 161.136 57.557278 
L 163.62696 56.304 
L 163.8144 56.210903 
L 166.4928 54.85776 
L 169.1712 53.484144 
L 170.715741 52.68 
L 171.8496 52.096388 
L 174.528 50.6967 
L 177.2064 49.276747 
L 177.616769 49.056 
L 179.8848 47.848672 
L 182.5632 46.402402 
L 184.335062 45.432 
L 185.2416 44.940474 
L 187.92 43.46748 
L 190.5984 41.973573 
L 190.891109 41.808 
L 193.2768 40.471673 
L 195.9552 38.950033 
L 197.284582 38.184 
L 198.6336 37.414287 
L 201.312 35.86422 
L 203.533413 34.56 
L 201.312 34.56 
L 198.6336 34.56 
L 195.9552 34.56 
L 193.2768 34.56 
L 190.5984 34.56 
L 187.92 34.56 
L 185.2416 34.56 
L 182.5632 34.56 
L 179.8848 34.56 
L 177.2064 34.56 
L 174.528 34.56 
L 171.8496 34.56 
L 169.1712 34.56 
L 166.4928 34.56 
L 163.8144 34.56 
L 161.136 34.56 
L 158.4576 34.56 
L 155.7792 34.56 
L 153.1008 34.56 
L 150.4224 34.56 
L 147.744 34.56 
L 145.0656 34.56 
L 142.3872 34.56 
L 139.7088 34.56 
L 137.0304 34.56 
L 134.352 34.56 
L 131.6736 34.56 
L 128.9952 34.56 
L 126.3168 34.56 
L 123.6384 34.56 
L 122.030914 34.56 
L 120.96 34.812475 
L 118.2816 35.379161 
L 115.6032 35.876707 
L 112.9248 36.300108 
L 110.2464 36.643904 
L 107.568 36.902111 
L 104.8896 37.068141 
L 102.2112 37.134719 
L 99.5328 37.09375 
L 96.8544 36.93619 
L 94.176 36.651834 
L 91.4976 36.229082 
L 88.8192 35.654589 
L 86.1408 34.912805 
L 85.120316 34.56 
L 83.4624 34.56 
L 80.784 34.56 
L 78.1056 34.56 
L 75.4272 34.56 
L 72.7488 34.56 
L 70.0704 34.56 
L 67.392 34.56 
L 64.7136 34.56 
L 62.0352 34.56 
L 59.3568 34.56 
L 56.6784 34.56 
L 54 34.56 
L 54 38.184 
L 54 41.808 
L 54 45.432 
L 54 49.056 
L 54 52.68 
L 54 56.304 
L 54 59.928 
L 54 63.552 
L 54 67.176 
L 54 70.8 
L 54 74.424 
L 54 78.048 
L 54 81.672 
L 54 85.296 
L 54 88.92 
z
" style="fill:#ff5900;"/>
   </g>
   <g id="PathCollection_8">
    <path clip-path="url(#p44431ba74d)" d="M 86.1408 34.912805 
L 88.8192 35.654589 
L 91.4976 36.229082 
L 94.176 36.651834 
L 96.8544 36.93619 
L 99.5328 37.09375 
L 102.2112 37.134719 
L 104.8896 37.068141 
L 107.568 36.902111 
L 110.2464 36.643904 
L 112.9248 36.300108 
L 115.6032 35.876707 
L 118.2816 35.379161 
L 120.96 34.812475 
L 122.030914 34.56 
L 120.96 34.56 
L 118.2816 34.56 
L 115.6032 34.56 
L 112.9248 34.56 
L 110.2464 34.56 
L 107.568 34.56 
L 104.8896 34.56 
L 102.2112 34.56 
L 99.5328 34.56 
L 96.8544 34.56 
L 94.176 34.56 
L 91.4976 34.56 
L 88.8192 34.56 
L 86.1408 34.56 
L 85.120316 34.56 
z
" style="fill:#c40000;"/>
   </g>
   <g id="matplotlib.axis_1">
    <g id="xtick_1">
     <g id="line2d_1">
      <defs>
       <path d="M 0 0 
L 0 3.5 
" id="me6186665da" style="stroke:#000000;stroke-width:0.8;"/>
      </defs>
      <g>
       <use style="stroke:#000000;stroke-width:0.8;" x="54" xlink:href="#me6186665da" y="252"/>
      </g>
     </g>
     <g id="text_1">
      <!-- 0 -->
      <g transform="translate(50.81875 266.598437)scale(0.1 -0.1)">
       <defs>
        <path d="M 31.78125 66.40625 
Q 24.171875 66.40625 20.328125 58.90625 
Q 16.5 51.421875 16.5 36.375 
Q 16.5 21.390625 20.328125 13.890625 
Q 24.171875 6.390625 31.78125 6.390625 
Q 39.453125 6.390625 43.28125 13.890625 
Q 47.125 21.390625 47.125 36.375 
Q 47.125 51.421875 43.28125 58.90625 
Q 39.453125 66.40625 31.78125 66.40625 
z
M 31.78125 74.21875 
Q 44.046875 74.21875 50.515625 64.515625 
Q 56.984375 54.828125 56.984375 36.375 
Q 56.984375 17.96875 50.515625 8.265625 
Q 44.046875 -1.421875 31.78125 -1.421875 
Q 19.53125 -1.421875 13.0625 8.265625 
Q 6.59375 17.96875 6.59375 36.375 
Q 6.59375 54.828125 13.0625 64.515625 
Q 19.53125 74.21875 31.78125 74.21875 
z
" id="DejaVuSans-48"/>
       </defs>
       <use xlink:href="#DejaVuSans-48"/>
      </g>
     </g>
    </g>
    <g id="xtick_2">
     <g id="line2d_2">
      <g>
       <use style="stroke:#000000;stroke-width:0.8;" x="107.568" xlink:href="#me6186665da" y="252"/>
      </g>
     </g>
     <g id="text_2">
      <!-- 20 -->
      <g transform="translate(101.2055 266.598437)scale(0.1 -0.1)">
       <defs>
        <path d="M 19.1875 8.296875 
L 53.609375 8.296875 
L 53.609375 0 
L 7.328125 0 
L 7.328125 8.296875 
Q 12.9375 14.109375 22.625 23.890625 
Q 32.328125 33.6875 34.8125 36.53125 
Q 39.546875 41.84375 41.421875 45.53125 
Q 43.3125 49.21875 43.3125 52.78125 
Q 43.3125 58.59375 39.234375 62.25 
Q 35.15625 65.921875 28.609375 65.921875 
Q 23.96875 65.921875 18.8125 64.3125 
Q 13.671875 62.703125 7.8125 59.421875 
L 7.8125 69.390625 
Q 13.765625 71.78125 18.9375 73 
Q 24.125 74.21875 28.421875 74.21875 
Q 39.75 74.21875 46.484375 68.546875 
Q 53.21875 62.890625 53.21875 53.421875 
Q 53.21875 48.921875 51.53125 44.890625 
Q 49.859375 40.875 45.40625 35.40625 
Q 44.1875 33.984375 37.640625 27.21875 
Q 31.109375 20.453125 19.1875 8.296875 
z
" id="DejaVuSans-50"/>
       </defs>
       <use xlink:href="#DejaVuSans-50"/>
       <use x="63.623047" xlink:href="#DejaVuSans-48"/>
      </g>
     </g>
    </g>
    <g id="xtick_3">
     <g id="line2d_3">
      <g>
       <use style="stroke:#000000;stroke-width:0.8;" x="161.136" xlink:href="#me6186665da" y="252"/>
      </g>
     </g>
     <g id="text_3">
      <!-- 40 -->
      <g transform="translate(154.7735 266.598437)scale(0.1 -0.1)">
       <defs>
        <path d="M 37.796875 64.3125 
L 12.890625 25.390625 
L 37.796875 25.390625 
z
M 35.203125 72.90625 
L 47.609375 72.90625 
L 47.609375 25.390625 
L 58.015625 25.390625 
L 58.015625 17.1875 
L 47.609375 17.1875 
L 47.609375 0 
L 37.796875 0 
L 37.796875 17.1875 
L 4.890625 17.1875 
L 4.890625 26.703125 
z
" id="DejaVuSans-52"/>
       </defs>
       <use xlink:href="#DejaVuSans-52"/>
       <use x="63.623047" xlink:href="#DejaVuSans-48"/>
      </g>
     </g>
    </g>
    <g id="xtick_4">
     <g id="line2d_4">
      <g>
       <use style="stroke:#000000;stroke-width:0.8;" x="214.704" xlink:href="#me6186665da" y="252"/>
      </g>
     </g>
     <g id="text_4">
      <!-- 60 -->
      <g transform="translate(208.3415 266.598437)scale(0.1 -0.1)">
       <defs>
        <path d="M 33.015625 40.375 
Q 26.375 40.375 22.484375 35.828125 
Q 18.609375 31.296875 18.609375 23.390625 
Q 18.609375 15.53125 22.484375 10.953125 
Q 26.375 6.390625 33.015625 6.390625 
Q 39.65625 6.390625 43.53125 10.953125 
Q 47.40625 15.53125 47.40625 23.390625 
Q 47.40625 31.296875 43.53125 35.828125 
Q 39.65625 40.375 33.015625 40.375 
z
M 52.59375 71.296875 
L 52.59375 62.3125 
Q 48.875 64.0625 45.09375 64.984375 
Q 41.3125 65.921875 37.59375 65.921875 
Q 27.828125 65.921875 22.671875 59.328125 
Q 17.53125 52.734375 16.796875 39.40625 
Q 19.671875 43.65625 24.015625 45.921875 
Q 28.375 48.1875 33.59375 48.1875 
Q 44.578125 48.1875 50.953125 41.515625 
Q 57.328125 34.859375 57.328125 23.390625 
Q 57.328125 12.15625 50.6875 5.359375 
Q 44.046875 -1.421875 33.015625 -1.421875 
Q 20.359375 -1.421875 13.671875 8.265625 
Q 6.984375 17.96875 6.984375 36.375 
Q 6.984375 53.65625 15.1875 63.9375 
Q 23.390625 74.21875 37.203125 74.21875 
Q 40.921875 74.21875 44.703125 73.484375 
Q 48.484375 72.75 52.59375 71.296875 
z
" id="DejaVuSans-54"/>
       </defs>
       <use xlink:href="#DejaVuSans-54"/>
       <use x="63.623047" xlink:href="#DejaVuSans-48"/>
      </g>
     </g>
    </g>
    <g id="xtick_5">
     <g id="line2d_5">
      <g>
       <use style="stroke:#000000;stroke-width:0.8;" x="268.272" xlink:href="#me6186665da" y="252"/>
      </g>
     </g>
     <g id="text_5">
      <!-- 80 -->
      <g transform="translate(261.9095 266.598437)scale(0.1 -0.1)">
       <defs>
        <path d="M 31.78125 34.625 
Q 24.75 34.625 20.71875 30.859375 
Q 16.703125 27.09375 16.703125 20.515625 
Q 16.703125 13.921875 20.71875 10.15625 
Q 24.75 6.390625 31.78125 6.390625 
Q 38.8125 6.390625 42.859375 10.171875 
Q 46.921875 13.96875 46.921875 20.515625 
Q 46.921875 27.09375 42.890625 30.859375 
Q 38.875 34.625 31.78125 34.625 
z
M 21.921875 38.8125 
Q 15.578125 40.375 12.03125 44.71875 
Q 8.5 49.078125 8.5 55.328125 
Q 8.5 64.0625 14.71875 69.140625 
Q 20.953125 74.21875 31.78125 74.21875 
Q 42.671875 74.21875 48.875 69.140625 
Q 55.078125 64.0625 55.078125 55.328125 
Q 55.078125 49.078125 51.53125 44.71875 
Q 48 40.375 41.703125 38.8125 
Q 48.828125 37.15625 52.796875 32.3125 
Q 56.78125 27.484375 56.78125 20.515625 
Q 56.78125 9.90625 50.3125 4.234375 
Q 43.84375 -1.421875 31.78125 -1.421875 
Q 19.734375 -1.421875 13.25 4.234375 
Q 6.78125 9.90625 6.78125 20.515625 
Q 6.78125 27.484375 10.78125 32.3125 
Q 14.796875 37.15625 21.921875 38.8125 
z
M 18.3125 54.390625 
Q 18.3125 48.734375 21.84375 45.5625 
Q 25.390625 42.390625 31.78125 42.390625 
Q 38.140625 42.390625 41.71875 45.5625 
Q 45.3125 48.734375 45.3125 54.390625 
Q 45.3125 60.0625 41.71875 63.234375 
Q 38.140625 66.40625 31.78125 66.40625 
Q 25.390625 66.40625 21.84375 63.234375 
Q 18.3125 60.0625 18.3125 54.390625 
z
" id="DejaVuSans-56"/>
       </defs>
       <use xlink:href="#DejaVuSans-56"/>
       <use x="63.623047" xlink:href="#DejaVuSans-48"/>
      </g>
     </g>
    </g>
    <g id="xtick_6">
     <g id="line2d_6">
      <g>
       <use style="stroke:#000000;stroke-width:0.8;" x="321.84" xlink:href="#me6186665da" y="252"/>
      </g>
     </g>
     <g id="text_6">
      <!-- 100 -->
      <g transform="translate(312.29625 266.598437)scale(0.1 -0.1)">
       <defs>
        <path d="M 12.40625 8.296875 
L 28.515625 8.296875 
L 28.515625 63.921875 
L 10.984375 60.40625 
L 10.984375 69.390625 
L 28.421875 72.90625 
L 38.28125 72.90625 
L 38.28125 8.296875 
L 54.390625 8.296875 
L 54.390625 0 
L 12.40625 0 
z
" id="DejaVuSans-49"/>
       </defs>
       <use xlink:href="#DejaVuSans-49"/>
       <use x="63.623047" xlink:href="#DejaVuSans-48"/>
       <use x="127.246094" xlink:href="#DejaVuSans-48"/>
      </g>
     </g>
    </g>
   </g>
   <g id="matplotlib.axis_2">
    <g id="ytick_1">
     <g id="line2d_7">
      <defs>
       <path d="M 0 0 
L -3.5 0 
" id="mb3e99340bf" style="stroke:#000000;stroke-width:0.8;"/>
      </defs>
      <g>
       <use style="stroke:#000000;stroke-width:0.8;" x="54" xlink:href="#mb3e99340bf" y="252"/>
      </g>
     </g>
     <g id="text_7">
      <!-- 0 -->
      <g transform="translate(40.6375 255.799219)scale(0.1 -0.1)">
       <use xlink:href="#DejaVuSans-48"/>
      </g>
     </g>
    </g>
    <g id="ytick_2">
     <g id="line2d_8">
      <g>
       <use style="stroke:#000000;stroke-width:0.8;" x="54" xlink:href="#mb3e99340bf" y="215.76"/>
      </g>
     </g>
     <g id="text_8">
      <!-- 10 -->
      <g transform="translate(34.275 219.559219)scale(0.1 -0.1)">
       <use xlink:href="#DejaVuSans-49"/>
       <use x="63.623047" xlink:href="#DejaVuSans-48"/>
      </g>
     </g>
    </g>
    <g id="ytick_3">
     <g id="line2d_9">
      <g>
       <use style="stroke:#000000;stroke-width:0.8;" x="54" xlink:href="#mb3e99340bf" y="179.52"/>
      </g>
     </g>
     <g id="text_9">
      <!-- 20 -->
      <g transform="translate(34.275 183.319219)scale(0.1 -0.1)">
       <use xlink:href="#DejaVuSans-50"/>
       <use x="63.623047" xlink:href="#DejaVuSans-48"/>
      </g>
     </g>
    </g>
    <g id="ytick_4">
     <g id="line2d_10">
      <g>
       <use style="stroke:#000000;stroke-width:0.8;" x="54" xlink:href="#mb3e99340bf" y="143.28"/>
      </g>
     </g>
     <g id="text_10">
      <!-- 30 -->
      <g transform="translate(34.275 147.079219)scale(0.1 -0.1)">
       <defs>
        <path d="M 40.578125 39.3125 
Q 47.65625 37.796875 51.625 33 
Q 55.609375 28.21875 55.609375 21.1875 
Q 55.609375 10.40625 48.1875 4.484375 
Q 40.765625 -1.421875 27.09375 -1.421875 
Q 22.515625 -1.421875 17.65625 -0.515625 
Q 12.796875 0.390625 7.625 2.203125 
L 7.625 11.71875 
Q 11.71875 9.328125 16.59375 8.109375 
Q 21.484375 6.890625 26.8125 6.890625 
Q 36.078125 6.890625 40.9375 10.546875 
Q 45.796875 14.203125 45.796875 21.1875 
Q 45.796875 27.640625 41.28125 31.265625 
Q 36.765625 34.90625 28.71875 34.90625 
L 20.21875 34.90625 
L 20.21875 43.015625 
L 29.109375 43.015625 
Q 36.375 43.015625 40.234375 45.921875 
Q 44.09375 48.828125 44.09375 54.296875 
Q 44.09375 59.90625 40.109375 62.90625 
Q 36.140625 65.921875 28.71875 65.921875 
Q 24.65625 65.921875 20.015625 65.03125 
Q 15.375 64.15625 9.8125 62.3125 
L 9.8125 71.09375 
Q 15.4375 72.65625 20.34375 73.4375 
Q 25.25 74.21875 29.59375 74.21875 
Q 40.828125 74.21875 47.359375 69.109375 
Q 53.90625 64.015625 53.90625 55.328125 
Q 53.90625 49.265625 50.4375 45.09375 
Q 46.96875 40.921875 40.578125 39.3125 
z
" id="DejaVuSans-51"/>
       </defs>
       <use xlink:href="#DejaVuSans-51"/>
       <use x="63.623047" xlink:href="#DejaVuSans-48"/>
      </g>
     </g>
    </g>
    <g id="ytick_5">
     <g id="line2d_11">
      <g>
       <use style="stroke:#000000;stroke-width:0.8;" x="54" xlink:href="#mb3e99340bf" y="107.04"/>
      </g>
     </g>
     <g id="text_11">
      <!-- 40 -->
      <g transform="translate(34.275 110.839219)scale(0.1 -0.1)">
       <use xlink:href="#DejaVuSans-52"/>
       <use x="63.623047" xlink:href="#DejaVuSans-48"/>
      </g>
     </g>
    </g>
    <g id="ytick_6">
     <g id="line2d_12">
      <g>
       <use style="stroke:#000000;stroke-width:0.8;" x="54" xlink:href="#mb3e99340bf" y="70.8"/>
      </g>
     </g>
     <g id="text_12">
      <!-- 50 -->
      <g transform="translate(34.275 74.599219)scale(0.1 -0.1)">
       <defs>
        <path d="M 10.796875 72.90625 
L 49.515625 72.90625 
L 49.515625 64.59375 
L 19.828125 64.59375 
L 19.828125 46.734375 
Q 21.96875 47.46875 24.109375 47.828125 
Q 26.265625 48.1875 28.421875 48.1875 
Q 40.625 48.1875 47.75 41.5 
Q 54.890625 34.8125 54.890625 23.390625 
Q 54.890625 11.625 47.5625 5.09375 
Q 40.234375 -1.421875 26.90625 -1.421875 
Q 22.3125 -1.421875 17.546875 -0.640625 
Q 12.796875 0.140625 7.71875 1.703125 
L 7.71875 11.625 
Q 12.109375 9.234375 16.796875 8.0625 
Q 21.484375 6.890625 26.703125 6.890625 
Q 35.15625 6.890625 40.078125 11.328125 
Q 45.015625 15.765625 45.015625 23.390625 
Q 45.015625 31 40.078125 35.4375 
Q 35.15625 39.890625 26.703125 39.890625 
Q 22.75 39.890625 18.8125 39.015625 
Q 14.890625 38.140625 10.796875 36.28125 
z
" id="DejaVuSans-53"/>
       </defs>
       <use xlink:href="#DejaVuSans-53"/>
       <use x="63.623047" xlink:href="#DejaVuSans-48"/>
      </g>
     </g>
    </g>
    <g id="ytick_7">
     <g id="line2d_13">
      <g>
       <use style="stroke:#000000;stroke-width:0.8;" x="54" xlink:href="#mb3e99340bf" y="34.56"/>
      </g>
     </g>
     <g id="text_13">
      <!-- 60 -->
      <g transform="translate(34.275 38.359219)scale(0.1 -0.1)">
       <use xlink:href="#DejaVuSans-54"/>
       <use x="63.623047" xlink:href="#DejaVuSans-48"/>
      </g>
     </g>
    </g>
   </g>
   <g id="patch_3">
    <path d="M 54 252 
L 54 34.56 
" style="fill:none;stroke:#000000;stroke-linecap:square;stroke-linejoin:miter;stroke-width:0.8;"/>
   </g>
   <g id="patch_4">
    <path d="M 321.84 252 
L 321.84 34.56 
" style="fill:none;stroke:#000000;stroke-linecap:square;stroke-linejoin:miter;stroke-width:0.8;"/>
   </g>
   <g id="patch_5">
    <path d="M 54 252 
L 321.84 252 
" style="fill:none;stroke:#000000;stroke-linecap:square;stroke-linejoin:miter;stroke-width:0.8;"/>
   </g>
   <g id="patch_6">
    <path d="M 54 34.56 
L 321.84 34.56 
" style="fill:none;stroke:#000000;stroke-linecap:square;stroke-linejoin:miter;stroke-width:0.8;"/>
   </g>
  </g>
  <g id="axes_2">
   <g id="patch_7">
    <path clip-path="url(#pcedbacd5b0)" d="M 338.58 252 
L 338.58 224.82 
L 338.58 61.74 
L 338.58 34.56 
L 349.452 34.56 
L 349.452 61.74 
L 349.452 224.82 
L 349.452 252 
z
" style="fill:#ffffff;stroke:#ffffff;stroke-linejoin:miter;stroke-width:0.01;"/>
   </g>
   <g id="QuadMesh_1">
    <path clip-path="url(#pcedbacd5b0)" d="M 338.58 252 
L 349.452 252 
L 349.452 224.82 
L 338.58 224.82 
L 338.58 252 
" style="fill:#0000c8;"/>
    <path clip-path="url(#pcedbacd5b0)" d="M 338.58 224.82 
L 349.452 224.82 
L 349.452 197.64 
L 338.58 197.64 
L 338.58 224.82 
" style="fill:#0040ff;"/>
    <path clip-path="url(#pcedbacd5b0)" d="M 338.58 197.64 
L 349.452 197.64 
L 349.452 170.46 
L 338.58 170.46 
L 338.58 197.64 
" style="fill:#00c0ff;"/>
    <path clip-path="url(#pcedbacd5b0)" d="M 338.58 170.46 
L 349.452 170.46 
L 349.452 143.28 
L 338.58 143.28 
L 338.58 170.46 
" style="fill:#49ffad;"/>
    <path clip-path="url(#pcedbacd5b0)" d="M 338.58 143.28 
L 349.452 143.28 
L 349.452 116.1 
L 338.58 116.1 
L 338.58 143.28 
" style="fill:#b1ff46;"/>
    <path clip-path="url(#pcedbacd5b0)" d="M 338.58 116.1 
L 349.452 116.1 
L 349.452 88.92 
L 338.58 88.92 
L 338.58 116.1 
" style="fill:#ffd000;"/>
    <path clip-path="url(#pcedbacd5b0)" d="M 338.58 88.92 
L 349.452 88.92 
L 349.452 61.74 
L 338.58 61.74 
L 338.58 88.92 
" style="fill:#ff5900;"/>
    <path clip-path="url(#pcedbacd5b0)" d="M 338.58 61.74 
L 349.452 61.74 
L 349.452 34.56 
L 338.58 34.56 
L 338.58 61.74 
" style="fill:#c40000;"/>
   </g>
   <g id="matplotlib.axis_3"/>
   <g id="matplotlib.axis_4">
    <g id="ytick_8">
     <g id="line2d_14">
      <defs>
       <path d="M 0 0 
L 3.5 0 
" id="m947a9de97f" style="stroke:#000000;stroke-width:0.8;"/>
      </defs>
      <g>
       <use style="stroke:#000000;stroke-width:0.8;" x="349.452" xlink:href="#m947a9de97f" y="252"/>
      </g>
     </g>
     <g id="text_14">
      <!-- 200 -->
      <g transform="translate(356.452 255.799219)scale(0.1 -0.1)">
       <use xlink:href="#DejaVuSans-50"/>
       <use x="63.623047" xlink:href="#DejaVuSans-48"/>
       <use x="127.246094" xlink:href="#DejaVuSans-48"/>
      </g>
     </g>
    </g>
    <g id="ytick_9">
     <g id="line2d_15">
      <g>
       <use style="stroke:#000000;stroke-width:0.8;" x="349.452" xlink:href="#m947a9de97f" y="224.82"/>
      </g>
     </g>
     <g id="text_15">
      <!-- 300 -->
      <g transform="translate(356.452 228.619219)scale(0.1 -0.1)">
       <use xlink:href="#DejaVuSans-51"/>
       <use x="63.623047" xlink:href="#DejaVuSans-48"/>
       <use x="127.246094" xlink:href="#DejaVuSans-48"/>
      </g>
     </g>
    </g>
    <g id="ytick_10">
     <g id="line2d_16">
      <g>
       <use style="stroke:#000000;stroke-width:0.8;" x="349.452" xlink:href="#m947a9de97f" y="197.64"/>
      </g>
     </g>
     <g id="text_16">
      <!-- 400 -->
      <g transform="translate(356.452 201.439219)scale(0.1 -0.1)">
       <use xlink:href="#DejaVuSans-52"/>
       <use x="63.623047" xlink:href="#DejaVuSans-48"/>
       <use x="127.246094" xlink:href="#DejaVuSans-48"/>
      </g>
     </g>
    </g>
    <g id="ytick_11">
     <g id="line2d_17">
      <g>
       <use style="stroke:#000000;stroke-width:0.8;" x="349.452" xlink:href="#m947a9de97f" y="170.46"/>
      </g>
     </g>
     <g id="text_17">
      <!-- 500 -->
      <g transform="translate(356.452 174.259219)scale(0.1 -0.1)">
       <use xlink:href="#DejaVuSans-53"/>
       <use x="63.623047" xlink:href="#DejaVuSans-48"/>
       <use x="127.246094" xlink:href="#DejaVuSans-48"/>
      </g>
     </g>
    </g>
    <g id="ytick_12">
     <g id="line2d_18">
      <g>
       <use style="stroke:#000000;stroke-width:0.8;" x="349.452" xlink:href="#m947a9de97f" y="143.28"/>
      </g>
     </g>
     <g id="text_18">
      <!-- 600 -->
      <g transform="translate(356.452 147.079219)scale(0.1 -0.1)">
       <use xlink:href="#DejaVuSans-54"/>
       <use x="63.623047" xlink:href="#DejaVuSans-48"/>
       <use x="127.246094" xlink:href="#DejaVuSans-48"/>
      </g>
     </g>
    </g>
    <g id="ytick_13">
     <g id="line2d_19">
      <g>
       <use style="stroke:#000000;stroke-width:0.8;" x="349.452" xlink:href="#m947a9de97f" y="116.1"/>
      </g>
     </g>
     <g id="text_19">
      <!-- 700 -->
      <g transform="translate(356.452 119.899219)scale(0.1 -0.1)">
       <defs>
        <path d="M 8.203125 72.90625 
L 55.078125 72.90625 
L 55.078125 68.703125 
L 28.609375 0 
L 18.3125 0 
L 43.21875 64.59375 
L 8.203125 64.59375 
z
" id="DejaVuSans-55"/>
       </defs>
       <use xlink:href="#DejaVuSans-55"/>
       <use x="63.623047" xlink:href="#DejaVuSans-48"/>
       <use x="127.246094" xlink:href="#DejaVuSans-48"/>
      </g>
     </g>
    </g>
    <g id="ytick_14">
     <g id="line2d_20">
      <g>
       <use style="stroke:#000000;stroke-width:0.8;" x="349.452" xlink:href="#m947a9de97f" y="88.92"/>
      </g>
     </g>
     <g id="text_20">
      <!-- 800 -->
      <g transform="translate(356.452 92.719219)scale(0.1 -0.1)">
       <use xlink:href="#DejaVuSans-56"/>
       <use x="63.623047" xlink:href="#DejaVuSans-48"/>
       <use x="127.246094" xlink:href="#DejaVuSans-48"/>
      </g>
     </g>
    </g>
    <g id="ytick_15">
     <g id="line2d_21">
      <g>
       <use style="stroke:#000000;stroke-width:0.8;" x="349.452" xlink:href="#m947a9de97f" y="61.74"/>
      </g>
     </g>
     <g id="text_21">
      <!-- 900 -->
      <g transform="translate(356.452 65.539219)scale(0.1 -0.1)">
       <defs>
        <path d="M 10.984375 1.515625 
L 10.984375 10.5 
Q 14.703125 8.734375 18.5 7.8125 
Q 22.3125 6.890625 25.984375 6.890625 
Q 35.75 6.890625 40.890625 13.453125 
Q 46.046875 20.015625 46.78125 33.40625 
Q 43.953125 29.203125 39.59375 26.953125 
Q 35.25 24.703125 29.984375 24.703125 
Q 19.046875 24.703125 12.671875 31.3125 
Q 6.296875 37.9375 6.296875 49.421875 
Q 6.296875 60.640625 12.9375 67.421875 
Q 19.578125 74.21875 30.609375 74.21875 
Q 43.265625 74.21875 49.921875 64.515625 
Q 56.59375 54.828125 56.59375 36.375 
Q 56.59375 19.140625 48.40625 8.859375 
Q 40.234375 -1.421875 26.421875 -1.421875 
Q 22.703125 -1.421875 18.890625 -0.6875 
Q 15.09375 0.046875 10.984375 1.515625 
z
M 30.609375 32.421875 
Q 37.25 32.421875 41.125 36.953125 
Q 45.015625 41.5 45.015625 49.421875 
Q 45.015625 57.28125 41.125 61.84375 
Q 37.25 66.40625 30.609375 66.40625 
Q 23.96875 66.40625 20.09375 61.84375 
Q 16.21875 57.28125 16.21875 49.421875 
Q 16.21875 41.5 20.09375 36.953125 
Q 23.96875 32.421875 30.609375 32.421875 
z
" id="DejaVuSans-57"/>
       </defs>
       <use xlink:href="#DejaVuSans-57"/>
       <use x="63.623047" xlink:href="#DejaVuSans-48"/>
       <use x="127.246094" xlink:href="#DejaVuSans-48"/>
      </g>
     </g>
    </g>
    <g id="ytick_16">
     <g id="line2d_22">
      <g>
       <use style="stroke:#000000;stroke-width:0.8;" x="349.452" xlink:href="#m947a9de97f" y="34.56"/>
      </g>
     </g>
     <g id="text_22">
      <!-- 1000 -->
      <g transform="translate(356.452 38.359219)scale(0.1 -0.1)">
       <use xlink:href="#DejaVuSans-49"/>
       <use x="63.623047" xlink:href="#DejaVuSans-48"/>
       <use x="127.246094" xlink:href="#DejaVuSans-48"/>
       <use x="190.869141" xlink:href="#DejaVuSans-48"/>
      </g>
     </g>
    </g>
   </g>
   <g id="patch_8">
    <path d="M 338.58 252 
L 338.58 224.82 
L 338.58 61.74 
L 338.58 34.56 
L 349.452 34.56 
L 349.452 61.74 
L 349.452 224.82 
L 349.452 252 
z
" style="fill:none;stroke:#000000;stroke-linejoin:miter;stroke-width:0.8;"/>
   </g>
  </g>
 </g>
 <defs>
  <clipPath id="p44431ba74d">
   <rect height="217.44" width="267.84" x="54" y="34.56"/>
  </clipPath>
  <clipPath id="pcedbacd5b0">
   <rect height="217.44" width="10.872" x="338.58" y="34.56"/>
  </clipPath>
 </defs>
</svg>
